<?xml version="1.0" encoding="UTF-8" standalone="no"?>
<!DOCTYPE svg PUBLIC "-//W3C//DTD SVG 1.1//EN"
 "http://www.w3.org/Graphics/SVG/1.1/DTD/svg11.dtd">
<!-- Generated by graphviz version 2.40.1 (20161225.0304)
 -->
<!-- Title: G Pages: 1 -->
<svg width="129pt" height="121pt"
 viewBox="0.00 0.00 129.00 121.00" xmlns="http://www.w3.org/2000/svg" xmlns:xlink="http://www.w3.org/1999/xlink">
<g id="graph0" class="graph" transform="scale(1 1) rotate(0) translate(4 117)">
<title>G</title>
<polygon fill="#ffffff" stroke="transparent" points="-4,4 -4,-117 125,-117 125,4 -4,4"/>
<!-- a -->
<g id="node1" class="node">
<title>a</title>
<polygon fill="#00ffff" stroke="transparent" points="8.5,-73.5 8.5,-108.5 43.5,-108.5 43.5,-73.5 8.5,-73.5"/>
<polygon fill="none" stroke="#000000" points="8.5,-73.5 8.5,-108.5 43.5,-108.5 43.5,-73.5 8.5,-73.5"/>
<text text-anchor="start" x="13.75" y="-86.8" font-family="Times,serif" font-size="14.00" fill="#000000">0.77</text>
<polygon fill="none" stroke="#000000" points="43.5,-73.5 43.5,-108.5 78.5,-108.5 78.5,-73.5 43.5,-73.5"/>
<text text-anchor="start" x="48.75" y="-86.8" font-family="Times,serif" font-size="14.00" fill="#000000">0.87</text>
<polygon fill="none" stroke="#000000" points="78.5,-73.5 78.5,-108.5 113.5,-108.5 113.5,-73.5 78.5,-73.5"/>
<text text-anchor="start" x="87.25" y="-86.8" font-family="Times,serif" font-size="14.00" fill="#000000">0.8</text>
<polygon fill="none" stroke="#000000" points="8.5,-38.5 8.5,-73.5 43.5,-73.5 43.5,-38.5 8.5,-38.5"/>
<text text-anchor="start" x="13.75" y="-51.8" font-family="Times,serif" font-size="14.00" fill="#000000">0.79</text>
<polygon fill="none" stroke="#000000" points="43.5,-38.5 43.5,-73.5 78.5,-73.5 78.5,-38.5 43.5,-38.5"/>
<text text-anchor="start" x="48.75" y="-51.8" font-family="Times,serif" font-size="14.00" fill="#000000">0.89</text>
<polygon fill="none" stroke="#000000" points="78.5,-38.5 78.5,-73.5 113.5,-73.5 113.5,-38.5 78.5,-38.5"/>
<text text-anchor="start" x="83.75" y="-51.8" font-family="Times,serif" font-size="14.00" fill="#000000">0.89</text>
<polygon fill="none" stroke="#000000" points="8.5,-3.5 8.5,-38.5 43.5,-38.5 43.5,-3.5 8.5,-3.5"/>
<text text-anchor="start" x="13.75" y="-16.8" font-family="Times,serif" font-size="14.00" fill="#000000">0.79</text>
<polygon fill="none" stroke="#000000" points="43.5,-3.5 43.5,-38.5 78.5,-38.5 78.5,-3.5 43.5,-3.5"/>
<text text-anchor="start" x="48.75" y="-16.8" font-family="Times,serif" font-size="14.00" fill="#000000">0.89</text>
<polygon fill="#98fb98" stroke="transparent" points="78.5,-3.5 78.5,-38.5 113.5,-38.5 113.5,-3.5 78.5,-3.5"/>
<polygon fill="none" stroke="#000000" points="78.5,-3.5 78.5,-38.5 113.5,-38.5 113.5,-3.5 78.5,-3.5"/>
<text text-anchor="start" x="92.5" y="-16.8" font-family="Times,serif" font-size="14.00" fill="#000000">1</text>
</g>
</g>
</svg>
