<?xml version="1.0" encoding="UTF-8" standalone="no"?>
<!DOCTYPE svg PUBLIC "-//W3C//DTD SVG 1.1//EN"
 "http://www.w3.org/Graphics/SVG/1.1/DTD/svg11.dtd">
<!-- Generated by graphviz version 2.40.1 (20161225.0304)
 -->
<!-- Title: G Pages: 1 -->
<svg width="215pt" height="625pt"
 viewBox="0.00 0.00 215.00 624.80" xmlns="http://www.w3.org/2000/svg" xmlns:xlink="http://www.w3.org/1999/xlink">
<g id="graph0" class="graph" transform="scale(1 1) rotate(0) translate(4 620.8)">
<title>G</title>
<polygon fill="#ffffff" stroke="transparent" points="-4,4 -4,-620.8 211,-620.8 211,4 -4,4"/>
<!-- 0 -->
<g id="node1" class="node">
<title>0</title>
<ellipse fill="none" stroke="#000000" cx="24" cy="-598.8" rx="18" ry="18"/>
<text text-anchor="middle" x="24" y="-594.6" font-family="Times,serif" font-size="14.00" fill="#000000">0</text>
</g>
<!-- state_0_action_0 -->
<g id="node2" class="node">
<title>state_0_action_0</title>
<ellipse fill="#000000" stroke="#000000" cx="24" cy="-526.2" rx="1.8" ry="1.8"/>
</g>
<!-- 0&#45;&gt;state_0_action_0 -->
<g id="edge1" class="edge">
<title>0&#45;&gt;state_0_action_0</title>
<path fill="none" stroke="#0000ff" d="M24,-580.48C24,-567.1955 24,-549.613 24,-538.1103"/>
<polygon fill="#0000ff" stroke="#0000ff" points="27.5001,-538.0218 24,-528.0218 20.5001,-538.0219 27.5001,-538.0218"/>
<text text-anchor="middle" x="27.5" y="-550.2" font-family="Times,serif" font-size="14.00" fill="#000000">0</text>
</g>
<!-- 2 -->
<g id="node3" class="node">
<title>2</title>
<ellipse fill="none" stroke="#000000" cx="54" cy="-453.6" rx="18" ry="18"/>
<text text-anchor="middle" x="54" y="-449.4" font-family="Times,serif" font-size="14.00" fill="#000000">2</text>
</g>
<!-- state_0_action_0&#45;&gt;2 -->
<g id="edge2" class="edge">
<title>state_0_action_0&#45;&gt;2</title>
<path fill="none" stroke="#00ff00" d="M24.7416,-524.4054C27.2996,-518.215 35.9953,-497.1714 43.2474,-479.6212"/>
<polygon fill="#00ff00" stroke="#00ff00" points="46.4954,-480.9258 47.0797,-470.3471 40.0259,-478.2524 46.4954,-480.9258"/>
<text text-anchor="middle" x="42.5" y="-493.8" font-family="Times,serif" font-size="14.00" fill="#000000">1</text>
</g>
<!-- state_2_action_0 -->
<g id="node7" class="node">
<title>state_2_action_0</title>
<ellipse fill="#000000" stroke="#000000" cx="24" cy="-381" rx="1.8" ry="1.8"/>
</g>
<!-- 2&#45;&gt;state_2_action_0 -->
<g id="edge7" class="edge">
<title>2&#45;&gt;state_2_action_0</title>
<path fill="none" stroke="#0000ff" d="M47.042,-436.7616C41.3895,-423.0825 33.5738,-404.1685 28.6538,-392.2622"/>
<polygon fill="#0000ff" stroke="#0000ff" points="31.8408,-390.8099 24.787,-382.9046 25.3714,-393.4833 31.8408,-390.8099"/>
<text text-anchor="middle" x="42.5" y="-405" font-family="Times,serif" font-size="14.00" fill="#000000">0</text>
</g>
<!-- state_2_action_1 -->
<g id="node10" class="node">
<title>state_2_action_1</title>
<ellipse fill="#000000" stroke="#000000" cx="78" cy="-381" rx="1.8" ry="1.8"/>
</g>
<!-- 2&#45;&gt;state_2_action_1 -->
<g id="edge10" class="edge">
<title>2&#45;&gt;state_2_action_1</title>
<path fill="none" stroke="#0000ff" d="M51.8033,-435.6824C51.2668,-425.067 51.9617,-411.6204 57,-400.8 59.3796,-395.6897 63.7232,-391.2471 67.8452,-387.8722"/>
<polygon fill="#0000ff" stroke="#0000ff" points="69.8595,-390.7346 76.0323,-382.1237 65.8369,-385.0057 69.8595,-390.7346"/>
<text text-anchor="middle" x="60.5" y="-405" font-family="Times,serif" font-size="14.00" fill="#000000">1</text>
</g>
<!-- 1 -->
<g id="node4" class="node">
<title>1</title>
<ellipse fill="none" stroke="#000000" cx="81" cy="-598.8" rx="18" ry="18"/>
<text text-anchor="middle" x="81" y="-594.6" font-family="Times,serif" font-size="14.00" fill="#000000">1</text>
</g>
<!-- state_1_action_0 -->
<g id="node5" class="node">
<title>state_1_action_0</title>
<ellipse fill="#000000" stroke="#000000" cx="84" cy="-526.2" rx="1.8" ry="1.8"/>
</g>
<!-- 1&#45;&gt;state_1_action_0 -->
<g id="edge3" class="edge">
<title>1&#45;&gt;state_1_action_0</title>
<path fill="none" stroke="#0000ff" d="M81.757,-580.48C82.306,-567.1955 83.0325,-549.613 83.5078,-538.1103"/>
<polygon fill="#0000ff" stroke="#0000ff" points="87.0088,-538.1578 83.9247,-528.0218 80.0147,-537.8688 87.0088,-538.1578"/>
<text text-anchor="middle" x="87.5" y="-550.2" font-family="Times,serif" font-size="14.00" fill="#000000">0</text>
</g>
<!-- state_1_action_1 -->
<g id="node6" class="node">
<title>state_1_action_1</title>
<ellipse fill="#000000" stroke="#000000" cx="54" cy="-526.2" rx="1.8" ry="1.8"/>
</g>
<!-- 1&#45;&gt;state_1_action_1 -->
<g id="edge5" class="edge">
<title>1&#45;&gt;state_1_action_1</title>
<path fill="none" stroke="#0000ff" d="M74.6014,-581.5948C69.5625,-568.0458 62.6784,-549.5351 58.285,-537.7219"/>
<polygon fill="#0000ff" stroke="#0000ff" points="61.4669,-536.2365 54.7006,-528.0837 54.9059,-538.6766 61.4669,-536.2365"/>
<text text-anchor="middle" x="71.5" y="-550.2" font-family="Times,serif" font-size="14.00" fill="#000000">1</text>
</g>
<!-- state_1_action_0&#45;&gt;2 -->
<g id="edge4" class="edge">
<title>state_1_action_0&#45;&gt;2</title>
<path fill="none" stroke="#00ff00" d="M83.2584,-524.4054C80.7004,-518.215 72.0047,-497.1714 64.7526,-479.6212"/>
<polygon fill="#00ff00" stroke="#00ff00" points="67.9741,-478.2524 60.9203,-470.3471 61.5046,-480.9258 67.9741,-478.2524"/>
<text text-anchor="middle" x="79.5" y="-493.8" font-family="Times,serif" font-size="14.00" fill="#000000">1</text>
</g>
<!-- state_1_action_1&#45;&gt;2 -->
<g id="edge6" class="edge">
<title>state_1_action_1&#45;&gt;2</title>
<path fill="none" stroke="#00ff00" d="M54,-524.1055C54,-517.829 54,-498.569 54,-481.7626"/>
<polygon fill="#00ff00" stroke="#00ff00" points="57.5001,-481.7532 54,-471.7532 50.5001,-481.7533 57.5001,-481.7532"/>
<text text-anchor="middle" x="57.5" y="-493.8" font-family="Times,serif" font-size="14.00" fill="#000000">1</text>
</g>
<!-- 3 -->
<g id="node8" class="node">
<title>3</title>
<ellipse fill="none" stroke="#000000" cx="75" cy="-308.4" rx="18" ry="18"/>
<text text-anchor="middle" x="75" y="-304.2" font-family="Times,serif" font-size="14.00" fill="#000000">3</text>
</g>
<!-- state_2_action_0&#45;&gt;3 -->
<g id="edge8" class="edge">
<title>state_2_action_0&#45;&gt;3</title>
<path fill="none" stroke="#00ff00" d="M25.0969,-379.3037C28.4958,-374.0602 39.1841,-357.6661 48.5,-344.4 51.5439,-340.0653 54.8484,-335.4832 58.058,-331.0936"/>
<polygon fill="#00ff00" stroke="#00ff00" points="60.9039,-333.1315 64.0201,-323.0053 55.2693,-328.9781 60.9039,-333.1315"/>
<text text-anchor="middle" x="61.25" y="-348.6" font-family="Times,serif" font-size="14.00" fill="#000000">0.62</text>
</g>
<!-- 4 -->
<g id="node9" class="node">
<title>4</title>
<ellipse fill="none" stroke="#000000" cx="18" cy="-163.2" rx="18" ry="18"/>
<text text-anchor="middle" x="18" y="-159" font-family="Times,serif" font-size="14.00" fill="#000000">4</text>
</g>
<!-- state_2_action_0&#45;&gt;4 -->
<g id="edge9" class="edge">
<title>state_2_action_0&#45;&gt;4</title>
<path fill="none" stroke="#00ff00" d="M23.8038,-378.9322C22.774,-367.9632 17.9853,-315.4643 16.5,-272.4 16.2426,-264.9378 16.4394,-263.0664 16.5,-255.6 16.6752,-234.008 17.0808,-209.5807 17.4261,-191.2671"/>
<polygon fill="#00ff00" stroke="#00ff00" points="20.9255,-191.3244 17.6202,-181.2584 13.9269,-191.1886 20.9255,-191.3244"/>
<text text-anchor="middle" x="29.25" y="-259.8" font-family="Times,serif" font-size="14.00" fill="#000000">0.38</text>
</g>
<!-- state_3_action_0 -->
<g id="node11" class="node">
<title>state_3_action_0</title>
<ellipse fill="#000000" stroke="#000000" cx="123" cy="-235.8" rx="1.8" ry="1.8"/>
</g>
<!-- 3&#45;&gt;state_3_action_0 -->
<g id="edge13" class="edge">
<title>3&#45;&gt;state_3_action_0</title>
<path fill="none" stroke="#0000ff" d="M84.9456,-293.3572C94.3644,-279.1114 108.2421,-258.1213 116.3774,-245.8167"/>
<polygon fill="#0000ff" stroke="#0000ff" points="119.3459,-247.673 121.9415,-237.401 113.5067,-243.8123 119.3459,-247.673"/>
<text text-anchor="middle" x="112.5" y="-259.8" font-family="Times,serif" font-size="14.00" fill="#000000">0</text>
</g>
<!-- state_3_action_1 -->
<g id="node13" class="node">
<title>state_3_action_1</title>
<ellipse fill="#000000" stroke="#000000" cx="45" cy="-235.8" rx="1.8" ry="1.8"/>
</g>
<!-- 3&#45;&gt;state_3_action_1 -->
<g id="edge15" class="edge">
<title>3&#45;&gt;state_3_action_1</title>
<path fill="none" stroke="#0000ff" d="M62.2103,-295.1448C56.8592,-288.7767 51.1595,-280.727 48,-272.4 45.0598,-264.6509 44.3321,-255.3338 44.3281,-248.0395"/>
<polygon fill="#0000ff" stroke="#0000ff" points="47.8325,-248.0157 44.7807,-237.87 40.8394,-247.7044 47.8325,-248.0157"/>
<text text-anchor="middle" x="51.5" y="-259.8" font-family="Times,serif" font-size="14.00" fill="#000000">1</text>
</g>
<!-- state_2_action_1&#45;&gt;2 -->
<g id="edge11" class="edge">
<title>state_2_action_1&#45;&gt;2</title>
<path fill="none" stroke="#00ff00" d="M77.3773,-382.8837C75.3291,-389.0794 68.6059,-409.4172 62.8922,-426.7012"/>
<polygon fill="#00ff00" stroke="#00ff00" points="59.5033,-425.8016 59.6877,-436.3948 66.1496,-427.9987 59.5033,-425.8016"/>
<text text-anchor="middle" x="83.25" y="-405" font-family="Times,serif" font-size="14.00" fill="#000000">0.18</text>
</g>
<!-- state_2_action_1&#45;&gt;3 -->
<g id="edge12" class="edge">
<title>state_2_action_1&#45;&gt;3</title>
<path fill="none" stroke="#00ff00" d="M77.9135,-378.9055C77.6541,-372.629 76.8582,-353.369 76.1637,-336.5626"/>
<polygon fill="#00ff00" stroke="#00ff00" points="79.6601,-336.4002 75.7501,-326.5532 72.6661,-336.6892 79.6601,-336.4002"/>
<text text-anchor="middle" x="90.25" y="-348.6" font-family="Times,serif" font-size="14.00" fill="#000000">0.82</text>
</g>
<!-- 5 -->
<g id="node12" class="node">
<title>5</title>
<ellipse fill="none" stroke="#000000" cx="123" cy="-163.2" rx="18" ry="18"/>
<text text-anchor="middle" x="123" y="-159" font-family="Times,serif" font-size="14.00" fill="#000000">5</text>
</g>
<!-- state_3_action_0&#45;&gt;5 -->
<g id="edge14" class="edge">
<title>state_3_action_0&#45;&gt;5</title>
<path fill="none" stroke="#00ff00" d="M123,-233.7055C123,-227.429 123,-208.169 123,-191.3626"/>
<polygon fill="#00ff00" stroke="#00ff00" points="126.5001,-191.3532 123,-181.3532 119.5001,-191.3533 126.5001,-191.3532"/>
<text text-anchor="middle" x="126.5" y="-203.4" font-family="Times,serif" font-size="14.00" fill="#000000">1</text>
</g>
<!-- state_5_action_0 -->
<g id="node14" class="node">
<title>state_5_action_0</title>
<ellipse fill="#000000" stroke="#000000" cx="123" cy="-90.6" rx="1.8" ry="1.8"/>
</g>
<!-- 5&#45;&gt;state_5_action_0 -->
<g id="edge18" class="edge">
<title>5&#45;&gt;state_5_action_0</title>
<path fill="none" stroke="#0000ff" d="M115.1122,-146.9209C111.0573,-136.4298 107.6106,-122.532 111,-110.4 111.941,-107.032 113.6283,-103.6664 115.446,-100.6905"/>
<polygon fill="#0000ff" stroke="#0000ff" points="118.49,-102.4541 121.5144,-92.3001 112.818,-98.3518 118.49,-102.4541"/>
<text text-anchor="middle" x="114.5" y="-114.6" font-family="Times,serif" font-size="14.00" fill="#000000">0</text>
</g>
<!-- state_3_action_1&#45;&gt;3 -->
<g id="edge16" class="edge">
<title>state_3_action_1&#45;&gt;3</title>
<path fill="none" stroke="#00ff00" d="M45.787,-237.7046C48.375,-243.9674 56.8657,-264.5151 64.031,-281.855"/>
<polygon fill="#00ff00" stroke="#00ff00" points="60.9882,-283.6563 68.042,-291.5616 67.4576,-280.9829 60.9882,-283.6563"/>
<text text-anchor="middle" x="72.25" y="-259.8" font-family="Times,serif" font-size="14.00" fill="#000000">0.18</text>
</g>
<!-- state_3_action_1&#45;&gt;4 -->
<g id="edge17" class="edge">
<title>state_3_action_1&#45;&gt;4</title>
<path fill="none" stroke="#00ff00" d="M44.3326,-234.0054C42.0653,-227.9088 34.4402,-207.4058 27.975,-190.0216"/>
<polygon fill="#00ff00" stroke="#00ff00" points="31.1179,-188.4316 24.3516,-180.2788 24.557,-190.8717 31.1179,-188.4316"/>
<text text-anchor="middle" x="50.25" y="-203.4" font-family="Times,serif" font-size="14.00" fill="#000000">0.82</text>
</g>
<!-- state_5_action_0&#45;&gt;5 -->
<g id="edge20" class="edge">
<title>state_5_action_0&#45;&gt;5</title>
<path fill="none" stroke="#00ff00" d="M123,-92.4218C123,-98.3618 123,-117.7637 123,-134.7544"/>
<polygon fill="#00ff00" stroke="#00ff00" points="119.5001,-134.8799 123,-144.88 126.5001,-134.88 119.5001,-134.8799"/>
<text text-anchor="middle" x="135.25" y="-114.6" font-family="Times,serif" font-size="14.00" fill="#000000">0.34</text>
</g>
<!-- 6 -->
<g id="node15" class="node">
<title>6</title>
<ellipse fill="none" stroke="#000000" cx="123" cy="-18" rx="18" ry="18"/>
<text text-anchor="middle" x="123" y="-13.8" font-family="Times,serif" font-size="14.00" fill="#000000">6</text>
</g>
<!-- state_5_action_0&#45;&gt;6 -->
<g id="edge19" class="edge">
<title>state_5_action_0&#45;&gt;6</title>
<path fill="none" stroke="#00ff00" d="M123,-88.5055C123,-82.229 123,-62.969 123,-46.1626"/>
<polygon fill="#00ff00" stroke="#00ff00" points="126.5001,-46.1532 123,-36.1532 119.5001,-46.1533 126.5001,-46.1532"/>
<text text-anchor="middle" x="135.25" y="-58.2" font-family="Times,serif" font-size="14.00" fill="#000000">0.66</text>
</g>
<!-- 7 -->
<g id="node16" class="node">
<title>7</title>
<ellipse fill="none" stroke="#000000" cx="135" cy="-598.8" rx="18" ry="18"/>
<text text-anchor="middle" x="135" y="-594.6" font-family="Times,serif" font-size="14.00" fill="#000000">7</text>
</g>
<!-- 8 -->
<g id="node17" class="node">
<title>8</title>
<ellipse fill="none" stroke="#000000" cx="189" cy="-598.8" rx="18" ry="18"/>
<text text-anchor="middle" x="189" y="-594.6" font-family="Times,serif" font-size="14.00" fill="#000000">8</text>
</g>
<!-- state_8_action_0 -->
<g id="node18" class="node">
<title>state_8_action_0</title>
<ellipse fill="#000000" stroke="#000000" cx="189" cy="-526.2" rx="1.8" ry="1.8"/>
</g>
<!-- 8&#45;&gt;state_8_action_0 -->
<g id="edge21" class="edge">
<title>8&#45;&gt;state_8_action_0</title>
<path fill="none" stroke="#0000ff" d="M189,-580.48C189,-567.1955 189,-549.613 189,-538.1103"/>
<polygon fill="#0000ff" stroke="#0000ff" points="192.5001,-538.0218 189,-528.0218 185.5001,-538.0219 192.5001,-538.0218"/>
<text text-anchor="middle" x="192.5" y="-550.2" font-family="Times,serif" font-size="14.00" fill="#000000">0</text>
</g>
<!-- 9 -->
<g id="node19" class="node">
<title>9</title>
<ellipse fill="none" stroke="#000000" cx="189" cy="-453.6" rx="18" ry="18"/>
<text text-anchor="middle" x="189" y="-449.4" font-family="Times,serif" font-size="14.00" fill="#000000">9</text>
</g>
<!-- state_8_action_0&#45;&gt;9 -->
<g id="edge22" class="edge">
<title>state_8_action_0&#45;&gt;9</title>
<path fill="none" stroke="#00ff00" d="M189,-524.1055C189,-517.829 189,-498.569 189,-481.7626"/>
<polygon fill="#00ff00" stroke="#00ff00" points="192.5001,-481.7532 189,-471.7532 185.5001,-481.7533 192.5001,-481.7532"/>
<text text-anchor="middle" x="192.5" y="-493.8" font-family="Times,serif" font-size="14.00" fill="#000000">1</text>
</g>
</g>
</svg>
