<?xml version="1.0" encoding="UTF-8" standalone="no"?>
<!DOCTYPE svg PUBLIC "-//W3C//DTD SVG 1.1//EN"
 "http://www.w3.org/Graphics/SVG/1.1/DTD/svg11.dtd">
<!-- Generated by graphviz version 2.40.1 (20161225.0304)
 -->
<!-- Title: G Pages: 1 -->
<svg width="164pt" height="156pt"
 viewBox="0.00 0.00 164.00 156.00" xmlns="http://www.w3.org/2000/svg" xmlns:xlink="http://www.w3.org/1999/xlink">
<g id="graph0" class="graph" transform="scale(1 1) rotate(0) translate(4 152)">
<title>G</title>
<polygon fill="#ffffff" stroke="transparent" points="-4,4 -4,-152 160,-152 160,4 -4,4"/>
<!-- a -->
<g id="node1" class="node">
<title>a</title>
<polygon fill="#00ffff" stroke="transparent" points="8,-109 8,-144 43,-144 43,-109 8,-109"/>
<polygon fill="none" stroke="#000000" points="8,-109 8,-144 43,-144 43,-109 8,-109"/>
<text text-anchor="start" x="22" y="-122.3" font-family="Times,serif" font-size="14.00" fill="#000000">0</text>
<polygon fill="none" stroke="#000000" points="43,-109 43,-144 78,-144 78,-109 43,-109"/>
<text text-anchor="start" x="57" y="-122.3" font-family="Times,serif" font-size="14.00" fill="#000000">1</text>
<polygon fill="none" stroke="#000000" points="78,-109 78,-144 113,-144 113,-109 78,-109"/>
<text text-anchor="start" x="92" y="-122.3" font-family="Times,serif" font-size="14.00" fill="#000000">2</text>
<polygon fill="none" stroke="#000000" points="113,-109 113,-144 148,-144 148,-109 113,-109"/>
<text text-anchor="start" x="127" y="-122.3" font-family="Times,serif" font-size="14.00" fill="#000000">3</text>
<polygon fill="none" stroke="#000000" points="8,-74 8,-109 43,-109 43,-74 8,-74"/>
<text text-anchor="start" x="22" y="-87.3" font-family="Times,serif" font-size="14.00" fill="#000000">4</text>
<polygon fill="none" stroke="#000000" points="43,-74 43,-109 78,-109 78,-74 43,-74"/>
<text text-anchor="start" x="57" y="-87.3" font-family="Times,serif" font-size="14.00" fill="#000000">5</text>
<polygon fill="none" stroke="#000000" points="78,-74 78,-109 113,-109 113,-74 78,-74"/>
<text text-anchor="start" x="92" y="-87.3" font-family="Times,serif" font-size="14.00" fill="#000000">6</text>
<polygon fill="none" stroke="#000000" points="113,-74 113,-109 148,-109 148,-74 113,-74"/>
<text text-anchor="start" x="127" y="-87.3" font-family="Times,serif" font-size="14.00" fill="#000000">7</text>
<polygon fill="none" stroke="#000000" points="8,-39 8,-74 43,-74 43,-39 8,-39"/>
<text text-anchor="start" x="22" y="-52.3" font-family="Times,serif" font-size="14.00" fill="#000000">8</text>
<polygon fill="none" stroke="#000000" points="43,-39 43,-74 78,-74 78,-39 43,-39"/>
<text text-anchor="start" x="57" y="-52.3" font-family="Times,serif" font-size="14.00" fill="#000000">9</text>
<polygon fill="none" stroke="#000000" points="78,-39 78,-74 113,-74 113,-39 78,-39"/>
<text text-anchor="start" x="88.5" y="-52.3" font-family="Times,serif" font-size="14.00" fill="#000000">10</text>
<polygon fill="none" stroke="#000000" points="113,-39 113,-74 148,-74 148,-39 113,-39"/>
<text text-anchor="start" x="123.5" y="-52.3" font-family="Times,serif" font-size="14.00" fill="#000000">11</text>
<polygon fill="none" stroke="#000000" points="8,-4 8,-39 43,-39 43,-4 8,-4"/>
<text text-anchor="start" x="18.5" y="-17.3" font-family="Times,serif" font-size="14.00" fill="#000000">12</text>
<polygon fill="none" stroke="#000000" points="43,-4 43,-39 78,-39 78,-4 43,-4"/>
<text text-anchor="start" x="53.5" y="-17.3" font-family="Times,serif" font-size="14.00" fill="#000000">13</text>
<polygon fill="none" stroke="#000000" points="78,-4 78,-39 113,-39 113,-4 78,-4"/>
<text text-anchor="start" x="88.5" y="-17.3" font-family="Times,serif" font-size="14.00" fill="#000000">14</text>
<polygon fill="#98fb98" stroke="transparent" points="113,-4 113,-39 148,-39 148,-4 113,-4"/>
<polygon fill="none" stroke="#000000" points="113,-4 113,-39 148,-39 148,-4 113,-4"/>
<text text-anchor="start" x="123.5" y="-17.3" font-family="Times,serif" font-size="14.00" fill="#000000">15</text>
</g>
</g>
</svg>
