<?xml version="1.0" encoding="UTF-8" standalone="no"?>
<!DOCTYPE svg PUBLIC "-//W3C//DTD SVG 1.1//EN"
 "http://www.w3.org/Graphics/SVG/1.1/DTD/svg11.dtd">
<!-- Generated by graphviz version 2.40.1 (20161225.0304)
 -->
<!-- Title: G Pages: 1 -->
<svg width="374pt" height="366pt"
 viewBox="0.00 0.00 374.00 366.00" xmlns="http://www.w3.org/2000/svg" xmlns:xlink="http://www.w3.org/1999/xlink">
<g id="graph0" class="graph" transform="scale(1 1) rotate(0) translate(4 362)">
<title>G</title>
<polygon fill="#ffffff" stroke="transparent" points="-4,4 -4,-362 370,-362 370,4 -4,4"/>
<!-- a -->
<g id="node1" class="node">
<title>a</title>
<polygon fill="#00ffff" stroke="transparent" points="8,-319 8,-354 43,-354 43,-319 8,-319"/>
<polygon fill="none" stroke="#000000" points="8,-319 8,-354 43,-354 43,-319 8,-319"/>
<text text-anchor="start" x="20.25" y="-332.3" font-family="Times,serif" font-size="14.00" fill="#000000">→</text>
<polygon fill="none" stroke="#000000" points="43,-319 43,-354 78,-354 78,-319 43,-319"/>
<text text-anchor="start" x="55.25" y="-332.3" font-family="Times,serif" font-size="14.00" fill="#000000">↓</text>
<polygon fill="none" stroke="#000000" points="78,-319 78,-354 113,-354 113,-319 78,-319"/>
<text text-anchor="start" x="90.25" y="-332.3" font-family="Times,serif" font-size="14.00" fill="#000000">↓</text>
<polygon fill="none" stroke="#000000" points="113,-319 113,-354 148,-354 148,-319 113,-319"/>
<text text-anchor="start" x="125.25" y="-332.3" font-family="Times,serif" font-size="14.00" fill="#000000">↓</text>
<polygon fill="none" stroke="#000000" points="148,-319 148,-354 183,-354 183,-319 148,-319"/>
<text text-anchor="start" x="160.25" y="-332.3" font-family="Times,serif" font-size="14.00" fill="#000000">↓</text>
<polygon fill="none" stroke="#000000" points="183,-319 183,-354 218,-354 218,-319 183,-319"/>
<text text-anchor="start" x="195.25" y="-332.3" font-family="Times,serif" font-size="14.00" fill="#000000">↓</text>
<polygon fill="none" stroke="#000000" points="218,-319 218,-354 253,-354 253,-319 218,-319"/>
<text text-anchor="start" x="230.25" y="-332.3" font-family="Times,serif" font-size="14.00" fill="#000000">↓</text>
<polygon fill="none" stroke="#000000" points="253,-319 253,-354 288,-354 288,-319 253,-319"/>
<text text-anchor="start" x="265.25" y="-332.3" font-family="Times,serif" font-size="14.00" fill="#000000">↓</text>
<polygon fill="none" stroke="#000000" points="288,-319 288,-354 323,-354 323,-319 288,-319"/>
<text text-anchor="start" x="300.25" y="-332.3" font-family="Times,serif" font-size="14.00" fill="#000000">↓</text>
<polygon fill="none" stroke="#000000" points="323,-319 323,-354 358,-354 358,-319 323,-319"/>
<text text-anchor="start" x="335.25" y="-332.3" font-family="Times,serif" font-size="14.00" fill="#000000">↓</text>
<polygon fill="none" stroke="#000000" points="8,-284 8,-319 43,-319 43,-284 8,-284"/>
<text text-anchor="start" x="20.25" y="-297.3" font-family="Times,serif" font-size="14.00" fill="#000000">→</text>
<polygon fill="none" stroke="#000000" points="43,-284 43,-319 78,-319 78,-284 43,-284"/>
<text text-anchor="start" x="55.25" y="-297.3" font-family="Times,serif" font-size="14.00" fill="#000000">→</text>
<polygon fill="none" stroke="#000000" points="78,-284 78,-319 113,-319 113,-284 78,-284"/>
<text text-anchor="start" x="90.25" y="-297.3" font-family="Times,serif" font-size="14.00" fill="#000000">↓</text>
<polygon fill="none" stroke="#000000" points="113,-284 113,-319 148,-319 148,-284 113,-284"/>
<text text-anchor="start" x="125.25" y="-297.3" font-family="Times,serif" font-size="14.00" fill="#000000">↓</text>
<polygon fill="none" stroke="#000000" points="148,-284 148,-319 183,-319 183,-284 148,-284"/>
<text text-anchor="start" x="160.25" y="-297.3" font-family="Times,serif" font-size="14.00" fill="#000000">↓</text>
<polygon fill="none" stroke="#000000" points="183,-284 183,-319 218,-319 218,-284 183,-284"/>
<text text-anchor="start" x="195.25" y="-297.3" font-family="Times,serif" font-size="14.00" fill="#000000">↓</text>
<polygon fill="none" stroke="#000000" points="218,-284 218,-319 253,-319 253,-284 218,-284"/>
<text text-anchor="start" x="230.25" y="-297.3" font-family="Times,serif" font-size="14.00" fill="#000000">↓</text>
<polygon fill="none" stroke="#000000" points="253,-284 253,-319 288,-319 288,-284 253,-284"/>
<text text-anchor="start" x="265.25" y="-297.3" font-family="Times,serif" font-size="14.00" fill="#000000">↓</text>
<polygon fill="none" stroke="#000000" points="288,-284 288,-319 323,-319 323,-284 288,-284"/>
<text text-anchor="start" x="300.25" y="-297.3" font-family="Times,serif" font-size="14.00" fill="#000000">↓</text>
<polygon fill="none" stroke="#000000" points="323,-284 323,-319 358,-319 358,-284 323,-284"/>
<text text-anchor="start" x="335.25" y="-297.3" font-family="Times,serif" font-size="14.00" fill="#000000">←</text>
<polygon fill="none" stroke="#000000" points="8,-249 8,-284 43,-284 43,-249 8,-249"/>
<text text-anchor="start" x="20.25" y="-262.3" font-family="Times,serif" font-size="14.00" fill="#000000">→</text>
<polygon fill="none" stroke="#000000" points="43,-249 43,-284 78,-284 78,-249 43,-249"/>
<text text-anchor="start" x="55.25" y="-262.3" font-family="Times,serif" font-size="14.00" fill="#000000">→</text>
<polygon fill="none" stroke="#000000" points="78,-249 78,-284 113,-284 113,-249 78,-249"/>
<text text-anchor="start" x="90.25" y="-262.3" font-family="Times,serif" font-size="14.00" fill="#000000">↓</text>
<polygon fill="none" stroke="#000000" points="113,-249 113,-284 148,-284 148,-249 113,-249"/>
<text text-anchor="start" x="125.25" y="-262.3" font-family="Times,serif" font-size="14.00" fill="#000000">↓</text>
<polygon fill="none" stroke="#000000" points="148,-249 148,-284 183,-284 183,-249 148,-249"/>
<text text-anchor="start" x="160.25" y="-262.3" font-family="Times,serif" font-size="14.00" fill="#000000">↓</text>
<polygon fill="none" stroke="#000000" points="183,-249 183,-284 218,-284 218,-249 183,-249"/>
<text text-anchor="start" x="195.25" y="-262.3" font-family="Times,serif" font-size="14.00" fill="#000000">↓</text>
<polygon fill="none" stroke="#000000" points="218,-249 218,-284 253,-284 253,-249 218,-249"/>
<text text-anchor="start" x="230.25" y="-262.3" font-family="Times,serif" font-size="14.00" fill="#000000">↓</text>
<polygon fill="none" stroke="#000000" points="253,-249 253,-284 288,-284 288,-249 253,-249"/>
<text text-anchor="start" x="265.25" y="-262.3" font-family="Times,serif" font-size="14.00" fill="#000000">↓</text>
<polygon fill="none" stroke="#000000" points="288,-249 288,-284 323,-284 323,-249 288,-249"/>
<text text-anchor="start" x="300.25" y="-262.3" font-family="Times,serif" font-size="14.00" fill="#000000">↓</text>
<polygon fill="none" stroke="#000000" points="323,-249 323,-284 358,-284 358,-249 323,-249"/>
<text text-anchor="start" x="335.25" y="-262.3" font-family="Times,serif" font-size="14.00" fill="#000000">←</text>
<polygon fill="none" stroke="#000000" points="8,-214 8,-249 43,-249 43,-214 8,-214"/>
<text text-anchor="start" x="20.25" y="-227.3" font-family="Times,serif" font-size="14.00" fill="#000000">→</text>
<polygon fill="none" stroke="#000000" points="43,-214 43,-249 78,-249 78,-214 43,-214"/>
<text text-anchor="start" x="55.25" y="-227.3" font-family="Times,serif" font-size="14.00" fill="#000000">→</text>
<polygon fill="none" stroke="#000000" points="78,-214 78,-249 113,-249 113,-214 78,-214"/>
<text text-anchor="start" x="90.25" y="-227.3" font-family="Times,serif" font-size="14.00" fill="#000000">→</text>
<polygon fill="none" stroke="#000000" points="113,-214 113,-249 148,-249 148,-214 113,-214"/>
<text text-anchor="start" x="125.25" y="-227.3" font-family="Times,serif" font-size="14.00" fill="#000000">↓</text>
<polygon fill="none" stroke="#000000" points="148,-214 148,-249 183,-249 183,-214 148,-214"/>
<text text-anchor="start" x="160.25" y="-227.3" font-family="Times,serif" font-size="14.00" fill="#000000">↓</text>
<polygon fill="none" stroke="#000000" points="183,-214 183,-249 218,-249 218,-214 183,-214"/>
<text text-anchor="start" x="195.25" y="-227.3" font-family="Times,serif" font-size="14.00" fill="#000000">↓</text>
<polygon fill="none" stroke="#000000" points="218,-214 218,-249 253,-249 253,-214 218,-214"/>
<text text-anchor="start" x="230.25" y="-227.3" font-family="Times,serif" font-size="14.00" fill="#000000">↓</text>
<polygon fill="none" stroke="#000000" points="253,-214 253,-249 288,-249 288,-214 253,-214"/>
<text text-anchor="start" x="265.25" y="-227.3" font-family="Times,serif" font-size="14.00" fill="#000000">↓</text>
<polygon fill="none" stroke="#000000" points="288,-214 288,-249 323,-249 323,-214 288,-214"/>
<text text-anchor="start" x="300.25" y="-227.3" font-family="Times,serif" font-size="14.00" fill="#000000">↓</text>
<polygon fill="none" stroke="#000000" points="323,-214 323,-249 358,-249 358,-214 323,-214"/>
<text text-anchor="start" x="335.25" y="-227.3" font-family="Times,serif" font-size="14.00" fill="#000000">←</text>
<polygon fill="none" stroke="#000000" points="8,-179 8,-214 43,-214 43,-179 8,-179"/>
<text text-anchor="start" x="20.25" y="-192.3" font-family="Times,serif" font-size="14.00" fill="#000000">→</text>
<polygon fill="none" stroke="#000000" points="43,-179 43,-214 78,-214 78,-179 43,-179"/>
<text text-anchor="start" x="55.25" y="-192.3" font-family="Times,serif" font-size="14.00" fill="#000000">→</text>
<polygon fill="none" stroke="#000000" points="78,-179 78,-214 113,-214 113,-179 78,-179"/>
<text text-anchor="start" x="90.25" y="-192.3" font-family="Times,serif" font-size="14.00" fill="#000000">→</text>
<polygon fill="none" stroke="#000000" points="113,-179 113,-214 148,-214 148,-179 113,-179"/>
<text text-anchor="start" x="125.25" y="-192.3" font-family="Times,serif" font-size="14.00" fill="#000000">→</text>
<polygon fill="none" stroke="#000000" points="148,-179 148,-214 183,-214 183,-179 148,-179"/>
<text text-anchor="start" x="160.25" y="-192.3" font-family="Times,serif" font-size="14.00" fill="#000000">↓</text>
<polygon fill="none" stroke="#000000" points="183,-179 183,-214 218,-214 218,-179 183,-179"/>
<text text-anchor="start" x="195.25" y="-192.3" font-family="Times,serif" font-size="14.00" fill="#000000">↓</text>
<polygon fill="none" stroke="#000000" points="218,-179 218,-214 253,-214 253,-179 218,-179"/>
<text text-anchor="start" x="230.25" y="-192.3" font-family="Times,serif" font-size="14.00" fill="#000000">↓</text>
<polygon fill="none" stroke="#000000" points="253,-179 253,-214 288,-214 288,-179 253,-179"/>
<text text-anchor="start" x="265.25" y="-192.3" font-family="Times,serif" font-size="14.00" fill="#000000">↓</text>
<polygon fill="none" stroke="#000000" points="288,-179 288,-214 323,-214 323,-179 288,-179"/>
<text text-anchor="start" x="300.25" y="-192.3" font-family="Times,serif" font-size="14.00" fill="#000000">↓</text>
<polygon fill="none" stroke="#000000" points="323,-179 323,-214 358,-214 358,-179 323,-179"/>
<text text-anchor="start" x="335.25" y="-192.3" font-family="Times,serif" font-size="14.00" fill="#000000">←</text>
<polygon fill="none" stroke="#000000" points="8,-144 8,-179 43,-179 43,-144 8,-144"/>
<text text-anchor="start" x="20.25" y="-157.3" font-family="Times,serif" font-size="14.00" fill="#000000">→</text>
<polygon fill="none" stroke="#000000" points="43,-144 43,-179 78,-179 78,-144 43,-144"/>
<text text-anchor="start" x="55.25" y="-157.3" font-family="Times,serif" font-size="14.00" fill="#000000">→</text>
<polygon fill="none" stroke="#000000" points="78,-144 78,-179 113,-179 113,-144 78,-144"/>
<text text-anchor="start" x="90.25" y="-157.3" font-family="Times,serif" font-size="14.00" fill="#000000">→</text>
<polygon fill="none" stroke="#000000" points="113,-144 113,-179 148,-179 148,-144 113,-144"/>
<text text-anchor="start" x="125.25" y="-157.3" font-family="Times,serif" font-size="14.00" fill="#000000">→</text>
<polygon fill="none" stroke="#000000" points="148,-144 148,-179 183,-179 183,-144 148,-144"/>
<text text-anchor="start" x="160.25" y="-157.3" font-family="Times,serif" font-size="14.00" fill="#000000">→</text>
<polygon fill="none" stroke="#000000" points="183,-144 183,-179 218,-179 218,-144 183,-144"/>
<text text-anchor="start" x="195.25" y="-157.3" font-family="Times,serif" font-size="14.00" fill="#000000">↓</text>
<polygon fill="none" stroke="#000000" points="218,-144 218,-179 253,-179 253,-144 218,-144"/>
<text text-anchor="start" x="230.25" y="-157.3" font-family="Times,serif" font-size="14.00" fill="#000000">↓</text>
<polygon fill="none" stroke="#000000" points="253,-144 253,-179 288,-179 288,-144 253,-144"/>
<text text-anchor="start" x="265.25" y="-157.3" font-family="Times,serif" font-size="14.00" fill="#000000">↓</text>
<polygon fill="none" stroke="#000000" points="288,-144 288,-179 323,-179 323,-144 288,-144"/>
<text text-anchor="start" x="300.25" y="-157.3" font-family="Times,serif" font-size="14.00" fill="#000000">↓</text>
<polygon fill="none" stroke="#000000" points="323,-144 323,-179 358,-179 358,-144 323,-144"/>
<text text-anchor="start" x="335.25" y="-157.3" font-family="Times,serif" font-size="14.00" fill="#000000">←</text>
<polygon fill="none" stroke="#000000" points="8,-109 8,-144 43,-144 43,-109 8,-109"/>
<text text-anchor="start" x="20.25" y="-122.3" font-family="Times,serif" font-size="14.00" fill="#000000">→</text>
<polygon fill="none" stroke="#000000" points="43,-109 43,-144 78,-144 78,-109 43,-109"/>
<text text-anchor="start" x="55.25" y="-122.3" font-family="Times,serif" font-size="14.00" fill="#000000">→</text>
<polygon fill="none" stroke="#000000" points="78,-109 78,-144 113,-144 113,-109 78,-109"/>
<text text-anchor="start" x="90.25" y="-122.3" font-family="Times,serif" font-size="14.00" fill="#000000">→</text>
<polygon fill="none" stroke="#000000" points="113,-109 113,-144 148,-144 148,-109 113,-109"/>
<text text-anchor="start" x="125.25" y="-122.3" font-family="Times,serif" font-size="14.00" fill="#000000">→</text>
<polygon fill="none" stroke="#000000" points="148,-109 148,-144 183,-144 183,-109 148,-109"/>
<text text-anchor="start" x="160.25" y="-122.3" font-family="Times,serif" font-size="14.00" fill="#000000">→</text>
<polygon fill="none" stroke="#000000" points="183,-109 183,-144 218,-144 218,-109 183,-109"/>
<text text-anchor="start" x="195.25" y="-122.3" font-family="Times,serif" font-size="14.00" fill="#000000">→</text>
<polygon fill="none" stroke="#000000" points="218,-109 218,-144 253,-144 253,-109 218,-109"/>
<text text-anchor="start" x="230.25" y="-122.3" font-family="Times,serif" font-size="14.00" fill="#000000">↓</text>
<polygon fill="none" stroke="#000000" points="253,-109 253,-144 288,-144 288,-109 253,-109"/>
<text text-anchor="start" x="265.25" y="-122.3" font-family="Times,serif" font-size="14.00" fill="#000000">↓</text>
<polygon fill="none" stroke="#000000" points="288,-109 288,-144 323,-144 323,-109 288,-109"/>
<text text-anchor="start" x="300.25" y="-122.3" font-family="Times,serif" font-size="14.00" fill="#000000">↓</text>
<polygon fill="none" stroke="#000000" points="323,-109 323,-144 358,-144 358,-109 323,-109"/>
<text text-anchor="start" x="335.25" y="-122.3" font-family="Times,serif" font-size="14.00" fill="#000000">←</text>
<polygon fill="none" stroke="#000000" points="8,-74 8,-109 43,-109 43,-74 8,-74"/>
<text text-anchor="start" x="20.25" y="-87.3" font-family="Times,serif" font-size="14.00" fill="#000000">→</text>
<polygon fill="none" stroke="#000000" points="43,-74 43,-109 78,-109 78,-74 43,-74"/>
<text text-anchor="start" x="55.25" y="-87.3" font-family="Times,serif" font-size="14.00" fill="#000000">→</text>
<polygon fill="none" stroke="#000000" points="78,-74 78,-109 113,-109 113,-74 78,-74"/>
<text text-anchor="start" x="90.25" y="-87.3" font-family="Times,serif" font-size="14.00" fill="#000000">→</text>
<polygon fill="none" stroke="#000000" points="113,-74 113,-109 148,-109 148,-74 113,-74"/>
<text text-anchor="start" x="125.25" y="-87.3" font-family="Times,serif" font-size="14.00" fill="#000000">→</text>
<polygon fill="none" stroke="#000000" points="148,-74 148,-109 183,-109 183,-74 148,-74"/>
<text text-anchor="start" x="160.25" y="-87.3" font-family="Times,serif" font-size="14.00" fill="#000000">→</text>
<polygon fill="none" stroke="#000000" points="183,-74 183,-109 218,-109 218,-74 183,-74"/>
<text text-anchor="start" x="195.25" y="-87.3" font-family="Times,serif" font-size="14.00" fill="#000000">→</text>
<polygon fill="none" stroke="#000000" points="218,-74 218,-109 253,-109 253,-74 218,-74"/>
<text text-anchor="start" x="230.25" y="-87.3" font-family="Times,serif" font-size="14.00" fill="#000000">→</text>
<polygon fill="none" stroke="#000000" points="253,-74 253,-109 288,-109 288,-74 253,-74"/>
<text text-anchor="start" x="265.25" y="-87.3" font-family="Times,serif" font-size="14.00" fill="#000000">↓</text>
<polygon fill="none" stroke="#000000" points="288,-74 288,-109 323,-109 323,-74 288,-74"/>
<text text-anchor="start" x="300.25" y="-87.3" font-family="Times,serif" font-size="14.00" fill="#000000">↓</text>
<polygon fill="none" stroke="#000000" points="323,-74 323,-109 358,-109 358,-74 323,-74"/>
<text text-anchor="start" x="335.25" y="-87.3" font-family="Times,serif" font-size="14.00" fill="#000000">←</text>
<polygon fill="none" stroke="#000000" points="8,-39 8,-74 43,-74 43,-39 8,-39"/>
<text text-anchor="start" x="20.25" y="-52.3" font-family="Times,serif" font-size="14.00" fill="#000000">→</text>
<polygon fill="none" stroke="#000000" points="43,-39 43,-74 78,-74 78,-39 43,-39"/>
<text text-anchor="start" x="55.25" y="-52.3" font-family="Times,serif" font-size="14.00" fill="#000000">→</text>
<polygon fill="none" stroke="#000000" points="78,-39 78,-74 113,-74 113,-39 78,-39"/>
<text text-anchor="start" x="90.25" y="-52.3" font-family="Times,serif" font-size="14.00" fill="#000000">→</text>
<polygon fill="none" stroke="#000000" points="113,-39 113,-74 148,-74 148,-39 113,-39"/>
<text text-anchor="start" x="125.25" y="-52.3" font-family="Times,serif" font-size="14.00" fill="#000000">→</text>
<polygon fill="none" stroke="#000000" points="148,-39 148,-74 183,-74 183,-39 148,-39"/>
<text text-anchor="start" x="160.25" y="-52.3" font-family="Times,serif" font-size="14.00" fill="#000000">→</text>
<polygon fill="none" stroke="#000000" points="183,-39 183,-74 218,-74 218,-39 183,-39"/>
<text text-anchor="start" x="195.25" y="-52.3" font-family="Times,serif" font-size="14.00" fill="#000000">→</text>
<polygon fill="none" stroke="#000000" points="218,-39 218,-74 253,-74 253,-39 218,-39"/>
<text text-anchor="start" x="230.25" y="-52.3" font-family="Times,serif" font-size="14.00" fill="#000000">→</text>
<polygon fill="none" stroke="#000000" points="253,-39 253,-74 288,-74 288,-39 253,-39"/>
<text text-anchor="start" x="265.25" y="-52.3" font-family="Times,serif" font-size="14.00" fill="#000000">→</text>
<polygon fill="none" stroke="#000000" points="288,-39 288,-74 323,-74 323,-39 288,-39"/>
<text text-anchor="start" x="300.25" y="-52.3" font-family="Times,serif" font-size="14.00" fill="#000000">↓</text>
<polygon fill="none" stroke="#000000" points="323,-39 323,-74 358,-74 358,-39 323,-39"/>
<text text-anchor="start" x="335.25" y="-52.3" font-family="Times,serif" font-size="14.00" fill="#000000">←</text>
<polygon fill="none" stroke="#000000" points="8,-4 8,-39 43,-39 43,-4 8,-4"/>
<text text-anchor="start" x="20.25" y="-17.3" font-family="Times,serif" font-size="14.00" fill="#000000">→</text>
<polygon fill="none" stroke="#000000" points="43,-4 43,-39 78,-39 78,-4 43,-4"/>
<text text-anchor="start" x="55.25" y="-17.3" font-family="Times,serif" font-size="14.00" fill="#000000">↑</text>
<polygon fill="none" stroke="#000000" points="78,-4 78,-39 113,-39 113,-4 78,-4"/>
<text text-anchor="start" x="90.25" y="-17.3" font-family="Times,serif" font-size="14.00" fill="#000000">↑</text>
<polygon fill="none" stroke="#000000" points="113,-4 113,-39 148,-39 148,-4 113,-4"/>
<text text-anchor="start" x="125.25" y="-17.3" font-family="Times,serif" font-size="14.00" fill="#000000">↑</text>
<polygon fill="none" stroke="#000000" points="148,-4 148,-39 183,-39 183,-4 148,-4"/>
<text text-anchor="start" x="160.25" y="-17.3" font-family="Times,serif" font-size="14.00" fill="#000000">↑</text>
<polygon fill="none" stroke="#000000" points="183,-4 183,-39 218,-39 218,-4 183,-4"/>
<text text-anchor="start" x="195.25" y="-17.3" font-family="Times,serif" font-size="14.00" fill="#000000">↑</text>
<polygon fill="none" stroke="#000000" points="218,-4 218,-39 253,-39 253,-4 218,-4"/>
<text text-anchor="start" x="230.25" y="-17.3" font-family="Times,serif" font-size="14.00" fill="#000000">↑</text>
<polygon fill="none" stroke="#000000" points="253,-4 253,-39 288,-39 288,-4 253,-4"/>
<text text-anchor="start" x="265.25" y="-17.3" font-family="Times,serif" font-size="14.00" fill="#000000">↑</text>
<polygon fill="none" stroke="#000000" points="288,-4 288,-39 323,-39 323,-4 288,-4"/>
<text text-anchor="start" x="300.25" y="-17.3" font-family="Times,serif" font-size="14.00" fill="#000000">↑</text>
<polygon fill="#98fb98" stroke="transparent" points="323,-4 323,-39 358,-39 358,-4 323,-4"/>
<polygon fill="none" stroke="#000000" points="323,-4 323,-39 358,-39 358,-4 323,-4"/>
<text text-anchor="start" x="333.5" y="-17.3" font-family="Times,serif" font-size="14.00" fill="#000000">⟲</text>
</g>
</g>
</svg>
