<?xml version="1.0" encoding="UTF-8" standalone="no"?>
<!DOCTYPE svg PUBLIC "-//W3C//DTD SVG 1.1//EN"
 "http://www.w3.org/Graphics/SVG/1.1/DTD/svg11.dtd">
<!-- Generated by graphviz version 2.40.1 (20161225.0304)
 -->
<!-- Title: G Pages: 1 -->
<svg width="269pt" height="261pt"
 viewBox="0.00 0.00 269.00 261.00" xmlns="http://www.w3.org/2000/svg" xmlns:xlink="http://www.w3.org/1999/xlink">
<g id="graph0" class="graph" transform="scale(1 1) rotate(0) translate(4 257)">
<title>G</title>
<polygon fill="#ffffff" stroke="transparent" points="-4,4 -4,-257 265,-257 265,4 -4,4"/>
<!-- a -->
<g id="node1" class="node">
<title>a</title>
<polygon fill="#00ffff" stroke="transparent" points="8.5,-213.5 8.5,-248.5 43.5,-248.5 43.5,-213.5 8.5,-213.5"/>
<polygon fill="none" stroke="#000000" points="8.5,-213.5 8.5,-248.5 43.5,-248.5 43.5,-213.5 8.5,-213.5"/>
<text text-anchor="start" x="22.5" y="-226.8" font-family="Times,serif" font-size="14.00" fill="#000000">0</text>
<polygon fill="none" stroke="#000000" points="43.5,-213.5 43.5,-248.5 78.5,-248.5 78.5,-213.5 43.5,-213.5"/>
<text text-anchor="start" x="57.5" y="-226.8" font-family="Times,serif" font-size="14.00" fill="#000000">1</text>
<polygon fill="none" stroke="#000000" points="78.5,-213.5 78.5,-248.5 113.5,-248.5 113.5,-213.5 78.5,-213.5"/>
<text text-anchor="start" x="92.5" y="-226.8" font-family="Times,serif" font-size="14.00" fill="#000000">2</text>
<polygon fill="none" stroke="#000000" points="113.5,-213.5 113.5,-248.5 148.5,-248.5 148.5,-213.5 113.5,-213.5"/>
<text text-anchor="start" x="127.5" y="-226.8" font-family="Times,serif" font-size="14.00" fill="#000000">3</text>
<polygon fill="none" stroke="#000000" points="148.5,-213.5 148.5,-248.5 183.5,-248.5 183.5,-213.5 148.5,-213.5"/>
<text text-anchor="start" x="162.5" y="-226.8" font-family="Times,serif" font-size="14.00" fill="#000000">4</text>
<polygon fill="none" stroke="#000000" points="183.5,-213.5 183.5,-248.5 218.5,-248.5 218.5,-213.5 183.5,-213.5"/>
<text text-anchor="start" x="197.5" y="-226.8" font-family="Times,serif" font-size="14.00" fill="#000000">5</text>
<polygon fill="none" stroke="#000000" points="218.5,-213.5 218.5,-248.5 253.5,-248.5 253.5,-213.5 218.5,-213.5"/>
<text text-anchor="start" x="232.5" y="-226.8" font-family="Times,serif" font-size="14.00" fill="#000000">6</text>
<polygon fill="none" stroke="#000000" points="8.5,-178.5 8.5,-213.5 43.5,-213.5 43.5,-178.5 8.5,-178.5"/>
<text text-anchor="start" x="22.5" y="-191.8" font-family="Times,serif" font-size="14.00" fill="#000000">7</text>
<polygon fill="none" stroke="#000000" points="43.5,-178.5 43.5,-213.5 78.5,-213.5 78.5,-178.5 43.5,-178.5"/>
<text text-anchor="start" x="57.5" y="-191.8" font-family="Times,serif" font-size="14.00" fill="#000000">8</text>
<polygon fill="none" stroke="#000000" points="78.5,-178.5 78.5,-213.5 113.5,-213.5 113.5,-178.5 78.5,-178.5"/>
<text text-anchor="start" x="92.5" y="-191.8" font-family="Times,serif" font-size="14.00" fill="#000000">9</text>
<polygon fill="none" stroke="#000000" points="113.5,-178.5 113.5,-213.5 148.5,-213.5 148.5,-178.5 113.5,-178.5"/>
<text text-anchor="start" x="124" y="-191.8" font-family="Times,serif" font-size="14.00" fill="#000000">10</text>
<polygon fill="none" stroke="#000000" points="148.5,-178.5 148.5,-213.5 183.5,-213.5 183.5,-178.5 148.5,-178.5"/>
<text text-anchor="start" x="159" y="-191.8" font-family="Times,serif" font-size="14.00" fill="#000000">11</text>
<polygon fill="none" stroke="#000000" points="183.5,-178.5 183.5,-213.5 218.5,-213.5 218.5,-178.5 183.5,-178.5"/>
<text text-anchor="start" x="194" y="-191.8" font-family="Times,serif" font-size="14.00" fill="#000000">12</text>
<polygon fill="none" stroke="#000000" points="218.5,-178.5 218.5,-213.5 253.5,-213.5 253.5,-178.5 218.5,-178.5"/>
<text text-anchor="start" x="229" y="-191.8" font-family="Times,serif" font-size="14.00" fill="#000000">13</text>
<polygon fill="none" stroke="#000000" points="8.5,-143.5 8.5,-178.5 43.5,-178.5 43.5,-143.5 8.5,-143.5"/>
<text text-anchor="start" x="19" y="-156.8" font-family="Times,serif" font-size="14.00" fill="#000000">14</text>
<polygon fill="none" stroke="#000000" points="43.5,-143.5 43.5,-178.5 78.5,-178.5 78.5,-143.5 43.5,-143.5"/>
<text text-anchor="start" x="54" y="-156.8" font-family="Times,serif" font-size="14.00" fill="#000000">15</text>
<polygon fill="none" stroke="#000000" points="78.5,-143.5 78.5,-178.5 113.5,-178.5 113.5,-143.5 78.5,-143.5"/>
<text text-anchor="start" x="89" y="-156.8" font-family="Times,serif" font-size="14.00" fill="#000000">16</text>
<polygon fill="none" stroke="#000000" points="113.5,-143.5 113.5,-178.5 148.5,-178.5 148.5,-143.5 113.5,-143.5"/>
<text text-anchor="start" x="124" y="-156.8" font-family="Times,serif" font-size="14.00" fill="#000000">17</text>
<polygon fill="none" stroke="#000000" points="148.5,-143.5 148.5,-178.5 183.5,-178.5 183.5,-143.5 148.5,-143.5"/>
<text text-anchor="start" x="159" y="-156.8" font-family="Times,serif" font-size="14.00" fill="#000000">18</text>
<polygon fill="none" stroke="#000000" points="183.5,-143.5 183.5,-178.5 218.5,-178.5 218.5,-143.5 183.5,-143.5"/>
<text text-anchor="start" x="194" y="-156.8" font-family="Times,serif" font-size="14.00" fill="#000000">19</text>
<polygon fill="none" stroke="#000000" points="218.5,-143.5 218.5,-178.5 253.5,-178.5 253.5,-143.5 218.5,-143.5"/>
<text text-anchor="start" x="229" y="-156.8" font-family="Times,serif" font-size="14.00" fill="#000000">20</text>
<polygon fill="none" stroke="#000000" points="8.5,-108.5 8.5,-143.5 43.5,-143.5 43.5,-108.5 8.5,-108.5"/>
<text text-anchor="start" x="19" y="-121.8" font-family="Times,serif" font-size="14.00" fill="#000000">21</text>
<polygon fill="none" stroke="#000000" points="43.5,-108.5 43.5,-143.5 78.5,-143.5 78.5,-108.5 43.5,-108.5"/>
<text text-anchor="start" x="54" y="-121.8" font-family="Times,serif" font-size="14.00" fill="#000000">22</text>
<polygon fill="none" stroke="#000000" points="78.5,-108.5 78.5,-143.5 113.5,-143.5 113.5,-108.5 78.5,-108.5"/>
<text text-anchor="start" x="89" y="-121.8" font-family="Times,serif" font-size="14.00" fill="#000000">23</text>
<polygon fill="none" stroke="#000000" points="113.5,-108.5 113.5,-143.5 148.5,-143.5 148.5,-108.5 113.5,-108.5"/>
<text text-anchor="start" x="124" y="-121.8" font-family="Times,serif" font-size="14.00" fill="#000000">24</text>
<polygon fill="none" stroke="#000000" points="148.5,-108.5 148.5,-143.5 183.5,-143.5 183.5,-108.5 148.5,-108.5"/>
<text text-anchor="start" x="159" y="-121.8" font-family="Times,serif" font-size="14.00" fill="#000000">25</text>
<polygon fill="none" stroke="#000000" points="183.5,-108.5 183.5,-143.5 218.5,-143.5 218.5,-108.5 183.5,-108.5"/>
<text text-anchor="start" x="194" y="-121.8" font-family="Times,serif" font-size="14.00" fill="#000000">26</text>
<polygon fill="none" stroke="#000000" points="218.5,-108.5 218.5,-143.5 253.5,-143.5 253.5,-108.5 218.5,-108.5"/>
<text text-anchor="start" x="229" y="-121.8" font-family="Times,serif" font-size="14.00" fill="#000000">27</text>
<polygon fill="none" stroke="#000000" points="8.5,-73.5 8.5,-108.5 43.5,-108.5 43.5,-73.5 8.5,-73.5"/>
<text text-anchor="start" x="19" y="-86.8" font-family="Times,serif" font-size="14.00" fill="#000000">28</text>
<polygon fill="none" stroke="#000000" points="43.5,-73.5 43.5,-108.5 78.5,-108.5 78.5,-73.5 43.5,-73.5"/>
<text text-anchor="start" x="54" y="-86.8" font-family="Times,serif" font-size="14.00" fill="#000000">29</text>
<polygon fill="none" stroke="#000000" points="78.5,-73.5 78.5,-108.5 113.5,-108.5 113.5,-73.5 78.5,-73.5"/>
<text text-anchor="start" x="89" y="-86.8" font-family="Times,serif" font-size="14.00" fill="#000000">30</text>
<polygon fill="none" stroke="#000000" points="113.5,-73.5 113.5,-108.5 148.5,-108.5 148.5,-73.5 113.5,-73.5"/>
<text text-anchor="start" x="124" y="-86.8" font-family="Times,serif" font-size="14.00" fill="#000000">31</text>
<polygon fill="none" stroke="#000000" points="148.5,-73.5 148.5,-108.5 183.5,-108.5 183.5,-73.5 148.5,-73.5"/>
<text text-anchor="start" x="159" y="-86.8" font-family="Times,serif" font-size="14.00" fill="#000000">32</text>
<polygon fill="none" stroke="#000000" points="183.5,-73.5 183.5,-108.5 218.5,-108.5 218.5,-73.5 183.5,-73.5"/>
<text text-anchor="start" x="194" y="-86.8" font-family="Times,serif" font-size="14.00" fill="#000000">33</text>
<polygon fill="none" stroke="#000000" points="218.5,-73.5 218.5,-108.5 253.5,-108.5 253.5,-73.5 218.5,-73.5"/>
<text text-anchor="start" x="229" y="-86.8" font-family="Times,serif" font-size="14.00" fill="#000000">34</text>
<polygon fill="none" stroke="#000000" points="8.5,-38.5 8.5,-73.5 43.5,-73.5 43.5,-38.5 8.5,-38.5"/>
<text text-anchor="start" x="19" y="-51.8" font-family="Times,serif" font-size="14.00" fill="#000000">35</text>
<polygon fill="none" stroke="#000000" points="43.5,-38.5 43.5,-73.5 78.5,-73.5 78.5,-38.5 43.5,-38.5"/>
<text text-anchor="start" x="54" y="-51.8" font-family="Times,serif" font-size="14.00" fill="#000000">36</text>
<polygon fill="none" stroke="#000000" points="78.5,-38.5 78.5,-73.5 113.5,-73.5 113.5,-38.5 78.5,-38.5"/>
<text text-anchor="start" x="89" y="-51.8" font-family="Times,serif" font-size="14.00" fill="#000000">37</text>
<polygon fill="none" stroke="#000000" points="113.5,-38.5 113.5,-73.5 148.5,-73.5 148.5,-38.5 113.5,-38.5"/>
<text text-anchor="start" x="124" y="-51.8" font-family="Times,serif" font-size="14.00" fill="#000000">38</text>
<polygon fill="none" stroke="#000000" points="148.5,-38.5 148.5,-73.5 183.5,-73.5 183.5,-38.5 148.5,-38.5"/>
<text text-anchor="start" x="159" y="-51.8" font-family="Times,serif" font-size="14.00" fill="#000000">39</text>
<polygon fill="#c0c0c0" stroke="transparent" points="183.5,-38.5 183.5,-73.5 218.5,-73.5 218.5,-38.5 183.5,-38.5"/>
<polygon fill="none" stroke="#000000" points="183.5,-38.5 183.5,-73.5 218.5,-73.5 218.5,-38.5 183.5,-38.5"/>
<text text-anchor="start" x="194" y="-51.8" font-family="Times,serif" font-size="14.00" fill="#000000">40</text>
<polygon fill="none" stroke="#000000" points="218.5,-38.5 218.5,-73.5 253.5,-73.5 253.5,-38.5 218.5,-38.5"/>
<text text-anchor="start" x="229" y="-51.8" font-family="Times,serif" font-size="14.00" fill="#000000">41</text>
<polygon fill="none" stroke="#000000" points="8.5,-3.5 8.5,-38.5 43.5,-38.5 43.5,-3.5 8.5,-3.5"/>
<text text-anchor="start" x="19" y="-16.8" font-family="Times,serif" font-size="14.00" fill="#000000">42</text>
<polygon fill="none" stroke="#000000" points="43.5,-3.5 43.5,-38.5 78.5,-38.5 78.5,-3.5 43.5,-3.5"/>
<text text-anchor="start" x="54" y="-16.8" font-family="Times,serif" font-size="14.00" fill="#000000">43</text>
<polygon fill="none" stroke="#000000" points="78.5,-3.5 78.5,-38.5 113.5,-38.5 113.5,-3.5 78.5,-3.5"/>
<text text-anchor="start" x="89" y="-16.8" font-family="Times,serif" font-size="14.00" fill="#000000">44</text>
<polygon fill="none" stroke="#000000" points="113.5,-3.5 113.5,-38.5 148.5,-38.5 148.5,-3.5 113.5,-3.5"/>
<text text-anchor="start" x="124" y="-16.8" font-family="Times,serif" font-size="14.00" fill="#000000">45</text>
<polygon fill="none" stroke="#000000" points="148.5,-3.5 148.5,-38.5 183.5,-38.5 183.5,-3.5 148.5,-3.5"/>
<text text-anchor="start" x="159" y="-16.8" font-family="Times,serif" font-size="14.00" fill="#000000">46</text>
<polygon fill="none" stroke="#000000" points="183.5,-3.5 183.5,-38.5 218.5,-38.5 218.5,-3.5 183.5,-3.5"/>
<text text-anchor="start" x="194" y="-16.8" font-family="Times,serif" font-size="14.00" fill="#000000">47</text>
<polygon fill="#98fb98" stroke="transparent" points="218.5,-3.5 218.5,-38.5 253.5,-38.5 253.5,-3.5 218.5,-3.5"/>
<polygon fill="none" stroke="#000000" points="218.5,-3.5 218.5,-38.5 253.5,-38.5 253.5,-3.5 218.5,-3.5"/>
<text text-anchor="start" x="229" y="-16.8" font-family="Times,serif" font-size="14.00" fill="#000000">48</text>
</g>
</g>
</svg>
