<?xml version="1.0" encoding="UTF-8" standalone="no"?>
<!DOCTYPE svg PUBLIC "-//W3C//DTD SVG 1.1//EN"
 "http://www.w3.org/Graphics/SVG/1.1/DTD/svg11.dtd">
<!-- Generated by graphviz version 2.40.1 (20161225.0304)
 -->
<!-- Title: G Pages: 1 -->
<svg width="269pt" height="261pt"
 viewBox="0.00 0.00 269.00 261.00" xmlns="http://www.w3.org/2000/svg" xmlns:xlink="http://www.w3.org/1999/xlink">
<g id="graph0" class="graph" transform="scale(1 1) rotate(0) translate(4 257)">
<title>G</title>
<polygon fill="#ffffff" stroke="transparent" points="-4,4 -4,-257 265,-257 265,4 -4,4"/>
<!-- a -->
<g id="node1" class="node">
<title>a</title>
<polygon fill="#00ffff" stroke="transparent" points="8.5,-213.5 8.5,-248.5 43.5,-248.5 43.5,-213.5 8.5,-213.5"/>
<polygon fill="none" stroke="#000000" points="8.5,-213.5 8.5,-248.5 43.5,-248.5 43.5,-213.5 8.5,-213.5"/>
<text text-anchor="start" x="17.25" y="-226.8" font-family="Times,serif" font-size="14.00" fill="#000000">0.7</text>
<polygon fill="none" stroke="#000000" points="43.5,-213.5 43.5,-248.5 78.5,-248.5 78.5,-213.5 43.5,-213.5"/>
<text text-anchor="start" x="48.75" y="-226.8" font-family="Times,serif" font-size="14.00" fill="#000000">0.79</text>
<polygon fill="none" stroke="#000000" points="78.5,-213.5 78.5,-248.5 113.5,-248.5 113.5,-213.5 78.5,-213.5"/>
<text text-anchor="start" x="87.25" y="-226.8" font-family="Times,serif" font-size="14.00" fill="#000000">0.8</text>
<polygon fill="none" stroke="#000000" points="113.5,-213.5 113.5,-248.5 148.5,-248.5 148.5,-213.5 113.5,-213.5"/>
<text text-anchor="start" x="122.25" y="-226.8" font-family="Times,serif" font-size="14.00" fill="#000000">0.8</text>
<polygon fill="none" stroke="#000000" points="148.5,-213.5 148.5,-248.5 183.5,-248.5 183.5,-213.5 148.5,-213.5"/>
<text text-anchor="start" x="157.25" y="-226.8" font-family="Times,serif" font-size="14.00" fill="#000000">0.8</text>
<polygon fill="none" stroke="#000000" points="183.5,-213.5 183.5,-248.5 218.5,-248.5 218.5,-213.5 183.5,-213.5"/>
<text text-anchor="start" x="188.75" y="-226.8" font-family="Times,serif" font-size="14.00" fill="#000000">0.79</text>
<polygon fill="none" stroke="#000000" points="218.5,-213.5 218.5,-248.5 253.5,-248.5 253.5,-213.5 218.5,-213.5"/>
<text text-anchor="start" x="223.75" y="-226.8" font-family="Times,serif" font-size="14.00" fill="#000000">0.71</text>
<polygon fill="none" stroke="#000000" points="8.5,-178.5 8.5,-213.5 43.5,-213.5 43.5,-178.5 8.5,-178.5"/>
<text text-anchor="start" x="13.75" y="-191.8" font-family="Times,serif" font-size="14.00" fill="#000000">0.72</text>
<polygon fill="none" stroke="#000000" points="43.5,-178.5 43.5,-213.5 78.5,-213.5 78.5,-178.5 43.5,-178.5"/>
<text text-anchor="start" x="52.25" y="-191.8" font-family="Times,serif" font-size="14.00" fill="#000000">0.8</text>
<polygon fill="none" stroke="#000000" points="78.5,-178.5 78.5,-213.5 113.5,-213.5 113.5,-178.5 78.5,-178.5"/>
<text text-anchor="start" x="87.25" y="-191.8" font-family="Times,serif" font-size="14.00" fill="#000000">0.8</text>
<polygon fill="none" stroke="#000000" points="113.5,-178.5 113.5,-213.5 148.5,-213.5 148.5,-178.5 113.5,-178.5"/>
<text text-anchor="start" x="122.25" y="-191.8" font-family="Times,serif" font-size="14.00" fill="#000000">0.8</text>
<polygon fill="none" stroke="#000000" points="148.5,-178.5 148.5,-213.5 183.5,-213.5 183.5,-178.5 148.5,-178.5"/>
<text text-anchor="start" x="157.25" y="-191.8" font-family="Times,serif" font-size="14.00" fill="#000000">0.8</text>
<polygon fill="none" stroke="#000000" points="183.5,-178.5 183.5,-213.5 218.5,-213.5 218.5,-178.5 183.5,-178.5"/>
<text text-anchor="start" x="192.25" y="-191.8" font-family="Times,serif" font-size="14.00" fill="#000000">0.8</text>
<polygon fill="none" stroke="#000000" points="218.5,-178.5 218.5,-213.5 253.5,-213.5 253.5,-178.5 218.5,-178.5"/>
<text text-anchor="start" x="223.75" y="-191.8" font-family="Times,serif" font-size="14.00" fill="#000000">0.79</text>
<polygon fill="none" stroke="#000000" points="8.5,-143.5 8.5,-178.5 43.5,-178.5 43.5,-143.5 8.5,-143.5"/>
<text text-anchor="start" x="13.75" y="-156.8" font-family="Times,serif" font-size="14.00" fill="#000000">0.79</text>
<polygon fill="none" stroke="#000000" points="43.5,-143.5 43.5,-178.5 78.5,-178.5 78.5,-143.5 43.5,-143.5"/>
<text text-anchor="start" x="52.25" y="-156.8" font-family="Times,serif" font-size="14.00" fill="#000000">0.8</text>
<polygon fill="none" stroke="#000000" points="78.5,-143.5 78.5,-178.5 113.5,-178.5 113.5,-143.5 78.5,-143.5"/>
<text text-anchor="start" x="87.25" y="-156.8" font-family="Times,serif" font-size="14.00" fill="#000000">0.8</text>
<polygon fill="none" stroke="#000000" points="113.5,-143.5 113.5,-178.5 148.5,-178.5 148.5,-143.5 113.5,-143.5"/>
<text text-anchor="start" x="122.25" y="-156.8" font-family="Times,serif" font-size="14.00" fill="#000000">0.8</text>
<polygon fill="none" stroke="#000000" points="148.5,-143.5 148.5,-178.5 183.5,-178.5 183.5,-143.5 148.5,-143.5"/>
<text text-anchor="start" x="157.25" y="-156.8" font-family="Times,serif" font-size="14.00" fill="#000000">0.8</text>
<polygon fill="none" stroke="#000000" points="183.5,-143.5 183.5,-178.5 218.5,-178.5 218.5,-143.5 183.5,-143.5"/>
<text text-anchor="start" x="192.25" y="-156.8" font-family="Times,serif" font-size="14.00" fill="#000000">0.8</text>
<polygon fill="none" stroke="#000000" points="218.5,-143.5 218.5,-178.5 253.5,-178.5 253.5,-143.5 218.5,-143.5"/>
<text text-anchor="start" x="227.25" y="-156.8" font-family="Times,serif" font-size="14.00" fill="#000000">0.8</text>
<polygon fill="none" stroke="#000000" points="8.5,-108.5 8.5,-143.5 43.5,-143.5 43.5,-108.5 8.5,-108.5"/>
<text text-anchor="start" x="17.25" y="-121.8" font-family="Times,serif" font-size="14.00" fill="#000000">0.8</text>
<polygon fill="none" stroke="#000000" points="43.5,-108.5 43.5,-143.5 78.5,-143.5 78.5,-108.5 43.5,-108.5"/>
<text text-anchor="start" x="52.25" y="-121.8" font-family="Times,serif" font-size="14.00" fill="#000000">0.8</text>
<polygon fill="none" stroke="#000000" points="78.5,-108.5 78.5,-143.5 113.5,-143.5 113.5,-108.5 78.5,-108.5"/>
<text text-anchor="start" x="87.25" y="-121.8" font-family="Times,serif" font-size="14.00" fill="#000000">0.8</text>
<polygon fill="none" stroke="#000000" points="113.5,-108.5 113.5,-143.5 148.5,-143.5 148.5,-108.5 113.5,-108.5"/>
<text text-anchor="start" x="122.25" y="-121.8" font-family="Times,serif" font-size="14.00" fill="#000000">0.8</text>
<polygon fill="none" stroke="#000000" points="148.5,-108.5 148.5,-143.5 183.5,-143.5 183.5,-108.5 148.5,-108.5"/>
<text text-anchor="start" x="157.25" y="-121.8" font-family="Times,serif" font-size="14.00" fill="#000000">0.8</text>
<polygon fill="none" stroke="#000000" points="183.5,-108.5 183.5,-143.5 218.5,-143.5 218.5,-108.5 183.5,-108.5"/>
<text text-anchor="start" x="192.25" y="-121.8" font-family="Times,serif" font-size="14.00" fill="#000000">0.8</text>
<polygon fill="none" stroke="#000000" points="218.5,-108.5 218.5,-143.5 253.5,-143.5 253.5,-108.5 218.5,-108.5"/>
<text text-anchor="start" x="227.25" y="-121.8" font-family="Times,serif" font-size="14.00" fill="#000000">0.8</text>
<polygon fill="none" stroke="#000000" points="8.5,-73.5 8.5,-108.5 43.5,-108.5 43.5,-73.5 8.5,-73.5"/>
<text text-anchor="start" x="17.25" y="-86.8" font-family="Times,serif" font-size="14.00" fill="#000000">0.8</text>
<polygon fill="none" stroke="#000000" points="43.5,-73.5 43.5,-108.5 78.5,-108.5 78.5,-73.5 43.5,-73.5"/>
<text text-anchor="start" x="52.25" y="-86.8" font-family="Times,serif" font-size="14.00" fill="#000000">0.8</text>
<polygon fill="none" stroke="#000000" points="78.5,-73.5 78.5,-108.5 113.5,-108.5 113.5,-73.5 78.5,-73.5"/>
<text text-anchor="start" x="87.25" y="-86.8" font-family="Times,serif" font-size="14.00" fill="#000000">0.8</text>
<polygon fill="none" stroke="#000000" points="113.5,-73.5 113.5,-108.5 148.5,-108.5 148.5,-73.5 113.5,-73.5"/>
<text text-anchor="start" x="122.25" y="-86.8" font-family="Times,serif" font-size="14.00" fill="#000000">0.8</text>
<polygon fill="none" stroke="#000000" points="148.5,-73.5 148.5,-108.5 183.5,-108.5 183.5,-73.5 148.5,-73.5"/>
<text text-anchor="start" x="157.25" y="-86.8" font-family="Times,serif" font-size="14.00" fill="#000000">0.8</text>
<polygon fill="none" stroke="#000000" points="183.5,-73.5 183.5,-108.5 218.5,-108.5 218.5,-73.5 183.5,-73.5"/>
<text text-anchor="start" x="192.25" y="-86.8" font-family="Times,serif" font-size="14.00" fill="#000000">0.8</text>
<polygon fill="none" stroke="#000000" points="218.5,-73.5 218.5,-108.5 253.5,-108.5 253.5,-73.5 218.5,-73.5"/>
<text text-anchor="start" x="227.25" y="-86.8" font-family="Times,serif" font-size="14.00" fill="#000000">0.8</text>
<polygon fill="none" stroke="#000000" points="8.5,-38.5 8.5,-73.5 43.5,-73.5 43.5,-38.5 8.5,-38.5"/>
<text text-anchor="start" x="13.75" y="-51.8" font-family="Times,serif" font-size="14.00" fill="#000000">0.79</text>
<polygon fill="none" stroke="#000000" points="43.5,-38.5 43.5,-73.5 78.5,-73.5 78.5,-38.5 43.5,-38.5"/>
<text text-anchor="start" x="52.25" y="-51.8" font-family="Times,serif" font-size="14.00" fill="#000000">0.8</text>
<polygon fill="none" stroke="#000000" points="78.5,-38.5 78.5,-73.5 113.5,-73.5 113.5,-38.5 78.5,-38.5"/>
<text text-anchor="start" x="87.25" y="-51.8" font-family="Times,serif" font-size="14.00" fill="#000000">0.8</text>
<polygon fill="none" stroke="#000000" points="113.5,-38.5 113.5,-73.5 148.5,-73.5 148.5,-38.5 113.5,-38.5"/>
<text text-anchor="start" x="122.25" y="-51.8" font-family="Times,serif" font-size="14.00" fill="#000000">0.8</text>
<polygon fill="none" stroke="#000000" points="148.5,-38.5 148.5,-73.5 183.5,-73.5 183.5,-38.5 148.5,-38.5"/>
<text text-anchor="start" x="157.25" y="-51.8" font-family="Times,serif" font-size="14.00" fill="#000000">0.8</text>
<polygon fill="#c0c0c0" stroke="transparent" points="183.5,-38.5 183.5,-73.5 218.5,-73.5 218.5,-38.5 183.5,-38.5"/>
<polygon fill="none" stroke="#000000" points="183.5,-38.5 183.5,-73.5 218.5,-73.5 218.5,-38.5 183.5,-38.5"/>
<text text-anchor="start" x="197.5" y="-51.8" font-family="Times,serif" font-size="14.00" fill="#000000">0</text>
<polygon fill="none" stroke="#000000" points="218.5,-38.5 218.5,-73.5 253.5,-73.5 253.5,-38.5 218.5,-38.5"/>
<text text-anchor="start" x="227.25" y="-51.8" font-family="Times,serif" font-size="14.00" fill="#000000">0.8</text>
<polygon fill="none" stroke="#000000" points="8.5,-3.5 8.5,-38.5 43.5,-38.5 43.5,-3.5 8.5,-3.5"/>
<text text-anchor="start" x="13.75" y="-16.8" font-family="Times,serif" font-size="14.00" fill="#000000">0.71</text>
<polygon fill="none" stroke="#000000" points="43.5,-3.5 43.5,-38.5 78.5,-38.5 78.5,-3.5 43.5,-3.5"/>
<text text-anchor="start" x="48.75" y="-16.8" font-family="Times,serif" font-size="14.00" fill="#000000">0.79</text>
<polygon fill="none" stroke="#000000" points="78.5,-3.5 78.5,-38.5 113.5,-38.5 113.5,-3.5 78.5,-3.5"/>
<text text-anchor="start" x="87.25" y="-16.8" font-family="Times,serif" font-size="14.00" fill="#000000">0.8</text>
<polygon fill="none" stroke="#000000" points="113.5,-3.5 113.5,-38.5 148.5,-38.5 148.5,-3.5 113.5,-3.5"/>
<text text-anchor="start" x="122.25" y="-16.8" font-family="Times,serif" font-size="14.00" fill="#000000">0.8</text>
<polygon fill="none" stroke="#000000" points="148.5,-3.5 148.5,-38.5 183.5,-38.5 183.5,-3.5 148.5,-3.5"/>
<text text-anchor="start" x="157.25" y="-16.8" font-family="Times,serif" font-size="14.00" fill="#000000">0.8</text>
<polygon fill="none" stroke="#000000" points="183.5,-3.5 183.5,-38.5 218.5,-38.5 218.5,-3.5 183.5,-3.5"/>
<text text-anchor="start" x="192.25" y="-16.8" font-family="Times,serif" font-size="14.00" fill="#000000">0.8</text>
<polygon fill="#98fb98" stroke="transparent" points="218.5,-3.5 218.5,-38.5 253.5,-38.5 253.5,-3.5 218.5,-3.5"/>
<polygon fill="none" stroke="#000000" points="218.5,-3.5 218.5,-38.5 253.5,-38.5 253.5,-3.5 218.5,-3.5"/>
<text text-anchor="start" x="232.5" y="-16.8" font-family="Times,serif" font-size="14.00" fill="#000000">1</text>
</g>
</g>
</svg>
