<?xml version="1.0" encoding="UTF-8" standalone="no"?>
<!DOCTYPE svg PUBLIC "-//W3C//DTD SVG 1.1//EN"
 "http://www.w3.org/Graphics/SVG/1.1/DTD/svg11.dtd">
<!-- Generated by graphviz version 2.36.0 (20140111.2315)
 -->
<!-- Title: G Pages: 1 -->
<svg width="200pt" height="192pt"
 viewBox="0.00 0.00 200.00 192.00" xmlns="http://www.w3.org/2000/svg" xmlns:xlink="http://www.w3.org/1999/xlink">
<g id="graph0" class="graph" transform="scale(1 1) rotate(0) translate(4 188)">
<title>G</title>
<polygon fill="white" stroke="none" points="-4,4 -4,-188 196,-188 196,4 -4,4"/>
<!-- a -->
<g id="node1" class="node"><title>a</title>
<polygon fill="cyan" stroke="none" points="8.5,-144.5 8.5,-179.5 43.5,-179.5 43.5,-144.5 8.5,-144.5"/>
<polygon fill="none" stroke="black" points="8.5,-144.5 8.5,-179.5 43.5,-179.5 43.5,-144.5 8.5,-144.5"/>
<text text-anchor="start" x="21" y="-158.3" font-family="Times,serif" font-size="14.00">0</text>
<polygon fill="none" stroke="black" points="44,-144.5 44,-179.5 79,-179.5 79,-144.5 44,-144.5"/>
<text text-anchor="start" x="56.5" y="-158.3" font-family="Times,serif" font-size="14.00">1</text>
<polygon fill="none" stroke="black" points="79,-144.5 79,-179.5 114,-179.5 114,-144.5 79,-144.5"/>
<text text-anchor="start" x="91.5" y="-158.3" font-family="Times,serif" font-size="14.00">2</text>
<polygon fill="none" stroke="black" points="114,-144.5 114,-179.5 149,-179.5 149,-144.5 114,-144.5"/>
<text text-anchor="start" x="126.5" y="-158.3" font-family="Times,serif" font-size="14.00">3</text>
<polygon fill="none" stroke="black" points="149,-144.5 149,-179.5 184,-179.5 184,-144.5 149,-144.5"/>
<text text-anchor="start" x="161.5" y="-158.3" font-family="Times,serif" font-size="14.00">4</text>
<polygon fill="none" stroke="black" points="8.5,-109 8.5,-144 43.5,-144 43.5,-109 8.5,-109"/>
<text text-anchor="start" x="21" y="-122.8" font-family="Times,serif" font-size="14.00">5</text>
<polygon fill="none" stroke="black" points="44,-109 44,-144 79,-144 79,-109 44,-109"/>
<text text-anchor="start" x="56.5" y="-122.8" font-family="Times,serif" font-size="14.00">6</text>
<polygon fill="none" stroke="black" points="79,-109 79,-144 114,-144 114,-109 79,-109"/>
<text text-anchor="start" x="91.5" y="-122.8" font-family="Times,serif" font-size="14.00">7</text>
<polygon fill="none" stroke="black" points="114,-109 114,-144 149,-144 149,-109 114,-109"/>
<text text-anchor="start" x="126.5" y="-122.8" font-family="Times,serif" font-size="14.00">8</text>
<polygon fill="none" stroke="black" points="149,-109 149,-144 184,-144 184,-109 149,-109"/>
<text text-anchor="start" x="161.5" y="-122.8" font-family="Times,serif" font-size="14.00">9</text>
<polygon fill="none" stroke="black" points="8.5,-74 8.5,-109 43.5,-109 43.5,-74 8.5,-74"/>
<text text-anchor="start" x="16.5" y="-87.8" font-family="Times,serif" font-size="14.00">10</text>
<polygon fill="none" stroke="black" points="44,-74 44,-109 79,-109 79,-74 44,-74"/>
<text text-anchor="start" x="52" y="-87.8" font-family="Times,serif" font-size="14.00">11</text>
<polygon fill="none" stroke="black" points="79,-74 79,-109 114,-109 114,-74 79,-74"/>
<text text-anchor="start" x="87" y="-87.8" font-family="Times,serif" font-size="14.00">12</text>
<polygon fill="none" stroke="black" points="114,-74 114,-109 149,-109 149,-74 114,-74"/>
<text text-anchor="start" x="122" y="-87.8" font-family="Times,serif" font-size="14.00">13</text>
<polygon fill="none" stroke="black" points="149,-74 149,-109 184,-109 184,-74 149,-74"/>
<text text-anchor="start" x="157" y="-87.8" font-family="Times,serif" font-size="14.00">14</text>
<polygon fill="none" stroke="black" points="8.5,-39 8.5,-74 43.5,-74 43.5,-39 8.5,-39"/>
<text text-anchor="start" x="16.5" y="-52.8" font-family="Times,serif" font-size="14.00">15</text>
<polygon fill="none" stroke="black" points="44,-39 44,-74 79,-74 79,-39 44,-39"/>
<text text-anchor="start" x="52" y="-52.8" font-family="Times,serif" font-size="14.00">16</text>
<polygon fill="none" stroke="black" points="79,-39 79,-74 114,-74 114,-39 79,-39"/>
<text text-anchor="start" x="87" y="-52.8" font-family="Times,serif" font-size="14.00">17</text>
<polygon fill="gray" stroke="none" points="114,-39 114,-74 149,-74 149,-39 114,-39"/>
<polygon fill="none" stroke="black" points="114,-39 114,-74 149,-74 149,-39 114,-39"/>
<text text-anchor="start" x="122" y="-52.8" font-family="Times,serif" font-size="14.00">18</text>
<polygon fill="none" stroke="black" points="149,-39 149,-74 184,-74 184,-39 149,-39"/>
<text text-anchor="start" x="157" y="-52.8" font-family="Times,serif" font-size="14.00">19</text>
<polygon fill="none" stroke="black" points="8.5,-4 8.5,-39 43.5,-39 43.5,-4 8.5,-4"/>
<text text-anchor="start" x="16.5" y="-17.8" font-family="Times,serif" font-size="14.00">20</text>
<polygon fill="none" stroke="black" points="44,-4 44,-39 79,-39 79,-4 44,-4"/>
<text text-anchor="start" x="52" y="-17.8" font-family="Times,serif" font-size="14.00">21</text>
<polygon fill="none" stroke="black" points="79,-4 79,-39 114,-39 114,-4 79,-4"/>
<text text-anchor="start" x="87" y="-17.8" font-family="Times,serif" font-size="14.00">22</text>
<polygon fill="none" stroke="black" points="114,-4 114,-39 149,-39 149,-4 114,-4"/>
<text text-anchor="start" x="122" y="-17.8" font-family="Times,serif" font-size="14.00">23</text>
<polygon fill="palegreen" stroke="none" points="149,-4 149,-39 184,-39 184,-4 149,-4"/>
<polygon fill="none" stroke="black" points="149,-4 149,-39 184,-39 184,-4 149,-4"/>
<text text-anchor="start" x="157" y="-17.8" font-family="Times,serif" font-size="14.00">24</text>
</g>
</g>
</svg>
