<?xml version="1.0" encoding="UTF-8" standalone="no"?>
<!DOCTYPE svg PUBLIC "-//W3C//DTD SVG 1.1//EN"
 "http://www.w3.org/Graphics/SVG/1.1/DTD/svg11.dtd">
<!-- Generated by graphviz version 2.40.1 (20161225.0304)
 -->
<!-- Title: G Pages: 1 -->
<svg width="199pt" height="191pt"
 viewBox="0.00 0.00 199.00 191.00" xmlns="http://www.w3.org/2000/svg" xmlns:xlink="http://www.w3.org/1999/xlink">
<g id="graph0" class="graph" transform="scale(1 1) rotate(0) translate(4 187)">
<title>G</title>
<polygon fill="#ffffff" stroke="transparent" points="-4,4 -4,-187 195,-187 195,4 -4,4"/>
<!-- a -->
<g id="node1" class="node">
<title>a</title>
<polygon fill="#00ffff" stroke="transparent" points="8.5,-143.5 8.5,-178.5 43.5,-178.5 43.5,-143.5 8.5,-143.5"/>
<polygon fill="none" stroke="#000000" points="8.5,-143.5 8.5,-178.5 43.5,-178.5 43.5,-143.5 8.5,-143.5"/>
<text text-anchor="start" x="22.5" y="-156.8" font-family="Times,serif" font-size="14.00" fill="#000000">0</text>
<polygon fill="none" stroke="#000000" points="43.5,-143.5 43.5,-178.5 78.5,-178.5 78.5,-143.5 43.5,-143.5"/>
<text text-anchor="start" x="57.5" y="-156.8" font-family="Times,serif" font-size="14.00" fill="#000000">1</text>
<polygon fill="none" stroke="#000000" points="78.5,-143.5 78.5,-178.5 113.5,-178.5 113.5,-143.5 78.5,-143.5"/>
<text text-anchor="start" x="92.5" y="-156.8" font-family="Times,serif" font-size="14.00" fill="#000000">2</text>
<polygon fill="none" stroke="#000000" points="113.5,-143.5 113.5,-178.5 148.5,-178.5 148.5,-143.5 113.5,-143.5"/>
<text text-anchor="start" x="127.5" y="-156.8" font-family="Times,serif" font-size="14.00" fill="#000000">3</text>
<polygon fill="none" stroke="#000000" points="148.5,-143.5 148.5,-178.5 183.5,-178.5 183.5,-143.5 148.5,-143.5"/>
<text text-anchor="start" x="162.5" y="-156.8" font-family="Times,serif" font-size="14.00" fill="#000000">4</text>
<polygon fill="none" stroke="#000000" points="8.5,-108.5 8.5,-143.5 43.5,-143.5 43.5,-108.5 8.5,-108.5"/>
<text text-anchor="start" x="22.5" y="-121.8" font-family="Times,serif" font-size="14.00" fill="#000000">5</text>
<polygon fill="none" stroke="#000000" points="43.5,-108.5 43.5,-143.5 78.5,-143.5 78.5,-108.5 43.5,-108.5"/>
<text text-anchor="start" x="57.5" y="-121.8" font-family="Times,serif" font-size="14.00" fill="#000000">6</text>
<polygon fill="none" stroke="#000000" points="78.5,-108.5 78.5,-143.5 113.5,-143.5 113.5,-108.5 78.5,-108.5"/>
<text text-anchor="start" x="92.5" y="-121.8" font-family="Times,serif" font-size="14.00" fill="#000000">7</text>
<polygon fill="none" stroke="#000000" points="113.5,-108.5 113.5,-143.5 148.5,-143.5 148.5,-108.5 113.5,-108.5"/>
<text text-anchor="start" x="127.5" y="-121.8" font-family="Times,serif" font-size="14.00" fill="#000000">8</text>
<polygon fill="none" stroke="#000000" points="148.5,-108.5 148.5,-143.5 183.5,-143.5 183.5,-108.5 148.5,-108.5"/>
<text text-anchor="start" x="162.5" y="-121.8" font-family="Times,serif" font-size="14.00" fill="#000000">9</text>
<polygon fill="none" stroke="#000000" points="8.5,-73.5 8.5,-108.5 43.5,-108.5 43.5,-73.5 8.5,-73.5"/>
<text text-anchor="start" x="19" y="-86.8" font-family="Times,serif" font-size="14.00" fill="#000000">10</text>
<polygon fill="none" stroke="#000000" points="43.5,-73.5 43.5,-108.5 78.5,-108.5 78.5,-73.5 43.5,-73.5"/>
<text text-anchor="start" x="54" y="-86.8" font-family="Times,serif" font-size="14.00" fill="#000000">11</text>
<polygon fill="none" stroke="#000000" points="78.5,-73.5 78.5,-108.5 113.5,-108.5 113.5,-73.5 78.5,-73.5"/>
<text text-anchor="start" x="89" y="-86.8" font-family="Times,serif" font-size="14.00" fill="#000000">12</text>
<polygon fill="none" stroke="#000000" points="113.5,-73.5 113.5,-108.5 148.5,-108.5 148.5,-73.5 113.5,-73.5"/>
<text text-anchor="start" x="124" y="-86.8" font-family="Times,serif" font-size="14.00" fill="#000000">13</text>
<polygon fill="none" stroke="#000000" points="148.5,-73.5 148.5,-108.5 183.5,-108.5 183.5,-73.5 148.5,-73.5"/>
<text text-anchor="start" x="159" y="-86.8" font-family="Times,serif" font-size="14.00" fill="#000000">14</text>
<polygon fill="none" stroke="#000000" points="8.5,-38.5 8.5,-73.5 43.5,-73.5 43.5,-38.5 8.5,-38.5"/>
<text text-anchor="start" x="19" y="-51.8" font-family="Times,serif" font-size="14.00" fill="#000000">15</text>
<polygon fill="none" stroke="#000000" points="43.5,-38.5 43.5,-73.5 78.5,-73.5 78.5,-38.5 43.5,-38.5"/>
<text text-anchor="start" x="54" y="-51.8" font-family="Times,serif" font-size="14.00" fill="#000000">16</text>
<polygon fill="none" stroke="#000000" points="78.5,-38.5 78.5,-73.5 113.5,-73.5 113.5,-38.5 78.5,-38.5"/>
<text text-anchor="start" x="89" y="-51.8" font-family="Times,serif" font-size="14.00" fill="#000000">17</text>
<polygon fill="none" stroke="#000000" points="113.5,-38.5 113.5,-73.5 148.5,-73.5 148.5,-38.5 113.5,-38.5"/>
<text text-anchor="start" x="124" y="-51.8" font-family="Times,serif" font-size="14.00" fill="#000000">18</text>
<polygon fill="none" stroke="#000000" points="148.5,-38.5 148.5,-73.5 183.5,-73.5 183.5,-38.5 148.5,-38.5"/>
<text text-anchor="start" x="159" y="-51.8" font-family="Times,serif" font-size="14.00" fill="#000000">19</text>
<polygon fill="none" stroke="#000000" points="8.5,-3.5 8.5,-38.5 43.5,-38.5 43.5,-3.5 8.5,-3.5"/>
<text text-anchor="start" x="19" y="-16.8" font-family="Times,serif" font-size="14.00" fill="#000000">20</text>
<polygon fill="none" stroke="#000000" points="43.5,-3.5 43.5,-38.5 78.5,-38.5 78.5,-3.5 43.5,-3.5"/>
<text text-anchor="start" x="54" y="-16.8" font-family="Times,serif" font-size="14.00" fill="#000000">21</text>
<polygon fill="none" stroke="#000000" points="78.5,-3.5 78.5,-38.5 113.5,-38.5 113.5,-3.5 78.5,-3.5"/>
<text text-anchor="start" x="89" y="-16.8" font-family="Times,serif" font-size="14.00" fill="#000000">22</text>
<polygon fill="none" stroke="#000000" points="113.5,-3.5 113.5,-38.5 148.5,-38.5 148.5,-3.5 113.5,-3.5"/>
<text text-anchor="start" x="124" y="-16.8" font-family="Times,serif" font-size="14.00" fill="#000000">23</text>
<polygon fill="#98fb98" stroke="transparent" points="148.5,-3.5 148.5,-38.5 183.5,-38.5 183.5,-3.5 148.5,-3.5"/>
<polygon fill="none" stroke="#000000" points="148.5,-3.5 148.5,-38.5 183.5,-38.5 183.5,-3.5 148.5,-3.5"/>
<text text-anchor="start" x="159" y="-16.8" font-family="Times,serif" font-size="14.00" fill="#000000">24</text>
</g>
</g>
</svg>
