<?xml version="1.0" encoding="UTF-8" standalone="no"?>
<!DOCTYPE svg PUBLIC "-//W3C//DTD SVG 1.1//EN"
 "http://www.w3.org/Graphics/SVG/1.1/DTD/svg11.dtd">
<!-- Generated by graphviz version 2.40.1 (20161225.0304)
 -->
<!-- Title: G Pages: 1 -->
<svg width="199pt" height="191pt"
 viewBox="0.00 0.00 199.00 191.00" xmlns="http://www.w3.org/2000/svg" xmlns:xlink="http://www.w3.org/1999/xlink">
<g id="graph0" class="graph" transform="scale(1 1) rotate(0) translate(4 187)">
<title>G</title>
<polygon fill="#ffffff" stroke="transparent" points="-4,4 -4,-187 195,-187 195,4 -4,4"/>
<!-- a -->
<g id="node1" class="node">
<title>a</title>
<polygon fill="#00ffff" stroke="transparent" points="8.5,-143.5 8.5,-178.5 43.5,-178.5 43.5,-143.5 8.5,-143.5"/>
<polygon fill="none" stroke="#000000" points="8.5,-143.5 8.5,-178.5 43.5,-178.5 43.5,-143.5 8.5,-143.5"/>
<text text-anchor="start" x="13.75" y="-156.8" font-family="Times,serif" font-size="14.00" fill="#000000">0.78</text>
<polygon fill="none" stroke="#000000" points="43.5,-143.5 43.5,-178.5 78.5,-178.5 78.5,-143.5 43.5,-143.5"/>
<text text-anchor="start" x="48.75" y="-156.8" font-family="Times,serif" font-size="14.00" fill="#000000">0.89</text>
<polygon fill="none" stroke="#000000" points="78.5,-143.5 78.5,-178.5 113.5,-178.5 113.5,-143.5 78.5,-143.5"/>
<text text-anchor="start" x="87.25" y="-156.8" font-family="Times,serif" font-size="14.00" fill="#000000">0.9</text>
<polygon fill="none" stroke="#000000" points="113.5,-143.5 113.5,-178.5 148.5,-178.5 148.5,-143.5 113.5,-143.5"/>
<text text-anchor="start" x="122.25" y="-156.8" font-family="Times,serif" font-size="14.00" fill="#000000">0.9</text>
<polygon fill="none" stroke="#000000" points="148.5,-143.5 148.5,-178.5 183.5,-178.5 183.5,-143.5 148.5,-143.5"/>
<text text-anchor="start" x="157.25" y="-156.8" font-family="Times,serif" font-size="14.00" fill="#000000">0.8</text>
<polygon fill="none" stroke="#000000" points="8.5,-108.5 8.5,-143.5 43.5,-143.5 43.5,-108.5 8.5,-108.5"/>
<text text-anchor="start" x="13.75" y="-121.8" font-family="Times,serif" font-size="14.00" fill="#000000">0.81</text>
<polygon fill="none" stroke="#000000" points="43.5,-108.5 43.5,-143.5 78.5,-143.5 78.5,-108.5 43.5,-108.5"/>
<text text-anchor="start" x="52.25" y="-121.8" font-family="Times,serif" font-size="14.00" fill="#000000">0.9</text>
<polygon fill="none" stroke="#000000" points="78.5,-108.5 78.5,-143.5 113.5,-143.5 113.5,-108.5 78.5,-108.5"/>
<text text-anchor="start" x="83.75" y="-121.8" font-family="Times,serif" font-size="14.00" fill="#000000">0.91</text>
<polygon fill="none" stroke="#000000" points="113.5,-108.5 113.5,-143.5 148.5,-143.5 148.5,-108.5 113.5,-108.5"/>
<text text-anchor="start" x="118.75" y="-121.8" font-family="Times,serif" font-size="14.00" fill="#000000">0.91</text>
<polygon fill="none" stroke="#000000" points="148.5,-108.5 148.5,-143.5 183.5,-143.5 183.5,-108.5 148.5,-108.5"/>
<text text-anchor="start" x="157.25" y="-121.8" font-family="Times,serif" font-size="14.00" fill="#000000">0.9</text>
<polygon fill="none" stroke="#000000" points="8.5,-73.5 8.5,-108.5 43.5,-108.5 43.5,-73.5 8.5,-73.5"/>
<text text-anchor="start" x="13.75" y="-86.8" font-family="Times,serif" font-size="14.00" fill="#000000">0.89</text>
<polygon fill="none" stroke="#000000" points="43.5,-73.5 43.5,-108.5 78.5,-108.5 78.5,-73.5 43.5,-73.5"/>
<text text-anchor="start" x="48.75" y="-86.8" font-family="Times,serif" font-size="14.00" fill="#000000">0.91</text>
<polygon fill="none" stroke="#000000" points="78.5,-73.5 78.5,-108.5 113.5,-108.5 113.5,-73.5 78.5,-73.5"/>
<text text-anchor="start" x="83.75" y="-86.8" font-family="Times,serif" font-size="14.00" fill="#000000">0.91</text>
<polygon fill="none" stroke="#000000" points="113.5,-73.5 113.5,-108.5 148.5,-108.5 148.5,-73.5 113.5,-73.5"/>
<text text-anchor="start" x="118.75" y="-86.8" font-family="Times,serif" font-size="14.00" fill="#000000">0.92</text>
<polygon fill="none" stroke="#000000" points="148.5,-73.5 148.5,-108.5 183.5,-108.5 183.5,-73.5 148.5,-73.5"/>
<text text-anchor="start" x="153.75" y="-86.8" font-family="Times,serif" font-size="14.00" fill="#000000">0.91</text>
<polygon fill="none" stroke="#000000" points="8.5,-38.5 8.5,-73.5 43.5,-73.5 43.5,-38.5 8.5,-38.5"/>
<text text-anchor="start" x="17.25" y="-51.8" font-family="Times,serif" font-size="14.00" fill="#000000">0.9</text>
<polygon fill="none" stroke="#000000" points="43.5,-38.5 43.5,-73.5 78.5,-73.5 78.5,-38.5 43.5,-38.5"/>
<text text-anchor="start" x="48.75" y="-51.8" font-family="Times,serif" font-size="14.00" fill="#000000">0.91</text>
<polygon fill="none" stroke="#000000" points="78.5,-38.5 78.5,-73.5 113.5,-73.5 113.5,-38.5 78.5,-38.5"/>
<text text-anchor="start" x="83.75" y="-51.8" font-family="Times,serif" font-size="14.00" fill="#000000">0.92</text>
<polygon fill="none" stroke="#000000" points="113.5,-38.5 113.5,-73.5 148.5,-73.5 148.5,-38.5 113.5,-38.5"/>
<text text-anchor="start" x="118.75" y="-51.8" font-family="Times,serif" font-size="14.00" fill="#000000">0.92</text>
<polygon fill="none" stroke="#000000" points="148.5,-38.5 148.5,-73.5 183.5,-73.5 183.5,-38.5 148.5,-38.5"/>
<text text-anchor="start" x="153.75" y="-51.8" font-family="Times,serif" font-size="14.00" fill="#000000">0.93</text>
<polygon fill="none" stroke="#000000" points="8.5,-3.5 8.5,-38.5 43.5,-38.5 43.5,-3.5 8.5,-3.5"/>
<text text-anchor="start" x="17.25" y="-16.8" font-family="Times,serif" font-size="14.00" fill="#000000">0.8</text>
<polygon fill="none" stroke="#000000" points="43.5,-3.5 43.5,-38.5 78.5,-38.5 78.5,-3.5 43.5,-3.5"/>
<text text-anchor="start" x="52.25" y="-16.8" font-family="Times,serif" font-size="14.00" fill="#000000">0.9</text>
<polygon fill="none" stroke="#000000" points="78.5,-3.5 78.5,-38.5 113.5,-38.5 113.5,-3.5 78.5,-3.5"/>
<text text-anchor="start" x="83.75" y="-16.8" font-family="Times,serif" font-size="14.00" fill="#000000">0.91</text>
<polygon fill="none" stroke="#000000" points="113.5,-3.5 113.5,-38.5 148.5,-38.5 148.5,-3.5 113.5,-3.5"/>
<text text-anchor="start" x="118.75" y="-16.8" font-family="Times,serif" font-size="14.00" fill="#000000">0.93</text>
<polygon fill="#98fb98" stroke="transparent" points="148.5,-3.5 148.5,-38.5 183.5,-38.5 183.5,-3.5 148.5,-3.5"/>
<polygon fill="none" stroke="#000000" points="148.5,-3.5 148.5,-38.5 183.5,-38.5 183.5,-3.5 148.5,-3.5"/>
<text text-anchor="start" x="162.5" y="-16.8" font-family="Times,serif" font-size="14.00" fill="#000000">1</text>
</g>
</g>
</svg>
